<?xml version='1.0' encoding='utf-8'?>
<svg xmlns:xlink="http://www.w3.org/1999/xlink" width="297.000mm" height="210.000mm" viewBox="0 -210.000 297.000 210.000" version="1.1" xmlns="http://www.w3.org/2000/svg"><!-- Generated by draftwright: https://github.com/pzfreo/draftwright --><metadata><rdf:RDF xmlns:rdf="http://www.w3.org/1999/02/22-rdf-syntax-ns#" xmlns:dc="http://purl.org/dc/elements/1.1/"><rdf:Description><dc:creator>draftwright</dc:creator><dc:source>https://github.com/pzfreo/draftwright</dc:source><dc:description>Generated by draftwright</dc:description></rdf:Description></rdf:RDF></metadata>
  <g transform="scale(1,-1)" stroke-linecap="round">
    <g fill="none" stroke="rgb(0,0,0)" stroke-width="0.5" id="part">
      <line x1="30.0" y1="50.0" x2="30.0" y2="80.0" />
      <line x1="30.0" y1="50.0" x2="110.0" y2="50.0" />
      <line x1="110.0" y1="50.0" x2="110.0" y2="80.0" />
      <line x1="30.0" y1="80.0" x2="110.0" y2="80.0" />
      <line x1="30.0" y1="100.0" x2="30.0" y2="160.0" />
      <line x1="30.0" y1="100.0" x2="110.0" y2="100.0" />
      <line x1="30.0" y1="160.0" x2="110.0" y2="160.0" />
      <line x1="110.0" y1="100.0" x2="110.0" y2="160.0" />
      <line x1="55.0" y1="120.0" x2="55.0" y2="140.0" />
      <line x1="55.0" y1="120.0" x2="85.0" y2="120.0" />
      <line x1="85.0" y1="120.0" x2="85.0" y2="140.0" />
      <line x1="55.0" y1="140.0" x2="85.0" y2="140.0" />
      <line x1="130.0" y1="50.0" x2="130.0" y2="80.0" />
      <line x1="130.0" y1="80.0" x2="190.0" y2="80.0" />
      <line x1="190.0" y1="50.0" x2="190.0" y2="80.0" />
      <line x1="130.0" y1="50.0" x2="190.0" y2="50.0" />
      <line x1="216.293731" y1="194.997127" x2="263.056117" y2="167.998851" />
      <line x1="263.056117" y1="141.000575" x2="263.056117" y2="167.998851" />
      <line x1="153.943883" y1="132.001149" x2="153.943883" y2="158.999425" />
      <line x1="216.293731" y1="194.997127" x2="153.943883" y2="158.999425" />
      <line x1="263.056117" y1="167.998851" x2="200.706269" y2="132.001149" />
      <line x1="153.943883" y1="158.999425" x2="200.706269" y2="132.001149" />
      <line x1="212.396865" y1="174.74842" x2="227.984327" y2="165.748994" />
      <line x1="212.396865" y1="174.74842" x2="189.015673" y2="161.249282" />
      <line x1="189.015673" y1="161.249282" x2="204.603135" y2="152.249856" />
      <line x1="227.984327" y1="165.748994" x2="204.603135" y2="152.249856" />
      <line x1="263.056117" y1="141.000575" x2="200.706269" y2="105.002873" />
      <line x1="200.706269" y1="105.002873" x2="200.706269" y2="132.001149" />
      <line x1="153.943883" y1="132.001149" x2="200.706269" y2="105.002873" />
      <line x1="212.396865" y1="156.749569" x2="212.396865" y2="174.74842" />
      <line x1="212.396865" y1="156.749569" x2="204.603135" y2="152.249856" />
    </g>
    <g fill="none" stroke="rgb(127,127,127)" stroke-width="0.25" id="hidden" stroke-dasharray="1.5875 0.79375">
      <line x1="30.0" y1="50.0" x2="30.0" y2="80.0" />
      <line x1="30.0" y1="80.0" x2="110.0" y2="80.0" />
      <line x1="55.0" y1="80.0" x2="85.0" y2="80.0" />
      <line x1="55.0" y1="80.0" x2="85.0" y2="80.0" />
      <line x1="30.0" y1="50.0" x2="110.0" y2="50.0" />
      <line x1="110.0" y1="50.0" x2="110.0" y2="80.0" />
      <line x1="55.0" y1="60.0" x2="55.0" y2="80.0" />
      <line x1="55.0" y1="60.0" x2="55.0" y2="80.0" />
      <line x1="55.0" y1="60.0" x2="85.0" y2="60.0" />
      <line x1="85.0" y1="60.0" x2="85.0" y2="80.0" />
      <line x1="85.0" y1="60.0" x2="85.0" y2="80.0" />
      <line x1="55.0" y1="60.0" x2="85.0" y2="60.0" />
      <line x1="30.0" y1="100.0" x2="30.0" y2="160.0" />
      <line x1="30.0" y1="100.0" x2="110.0" y2="100.0" />
      <line x1="30.0" y1="160.0" x2="110.0" y2="160.0" />
      <line x1="110.0" y1="100.0" x2="110.0" y2="160.0" />
      <line x1="55.0" y1="120.0" x2="55.0" y2="140.0" />
      <line x1="55.0" y1="120.0" x2="85.0" y2="120.0" />
      <line x1="85.0" y1="120.0" x2="85.0" y2="140.0" />
      <line x1="55.0" y1="140.0" x2="85.0" y2="140.0" />
      <line x1="130.0" y1="50.0" x2="130.0" y2="80.0" />
      <line x1="130.0" y1="80.0" x2="190.0" y2="80.0" />
      <line x1="190.0" y1="50.0" x2="190.0" y2="80.0" />
      <line x1="130.0" y1="50.0" x2="190.0" y2="50.0" />
      <line x1="150.0" y1="80.0" x2="170.0" y2="80.0" />
      <line x1="150.0" y1="80.0" x2="170.0" y2="80.0" />
      <line x1="150.0" y1="60.0" x2="150.0" y2="80.0" />
      <line x1="170.0" y1="60.0" x2="170.0" y2="80.0" />
      <line x1="150.0" y1="60.0" x2="170.0" y2="60.0" />
      <line x1="150.0" y1="60.0" x2="150.0" y2="80.0" />
      <line x1="170.0" y1="60.0" x2="170.0" y2="80.0" />
      <line x1="150.0" y1="60.0" x2="170.0" y2="60.0" />
      <line x1="216.293731" y1="167.998851" x2="216.293731" y2="194.997127" />
      <line x1="216.293731" y1="167.998851" x2="263.056117" y2="141.000575" />
      <line x1="216.293731" y1="167.998851" x2="153.943883" y2="132.001149" />
      <line x1="227.984327" y1="147.750144" x2="227.984327" y2="165.748994" />
      <line x1="212.396865" y1="156.749569" x2="227.984327" y2="147.750144" />
      <line x1="204.603135" y1="152.249856" x2="189.015673" y2="143.250431" />
      <line x1="189.015673" y1="143.250431" x2="189.015673" y2="161.249282" />
      <line x1="204.603135" y1="134.251006" x2="204.603135" y2="152.249856" />
      <line x1="189.015673" y1="143.250431" x2="204.603135" y2="134.251006" />
      <line x1="227.984327" y1="147.750144" x2="204.603135" y2="134.251006" />
    </g>
    <g fill="rgb(0,51,178)" stroke="rgb(0,51,178)" stroke-width="0.05" id="dims">
      <path d="M 122.0,50.05 L 114.0,50.05 L 114.0,49.95 L 122.0,49.95 L 122.0,50.05" />
      <path d="M 122.0,80.05 L 114.0,80.05 L 114.0,79.95 L 122.0,79.95 L 122.0,80.05" />
      <path d="M 120.9,77.3 A 9.124143795447422,9.124143795447422 -170.5376777919744 0,0 120.0,80.0 A 9.124143795447422,9.124143795447422 -9.46232220802563 0,0 119.1,77.3 L 119.95,77.61875 L 119.95,68.546499 L 120.05,68.546499 L 120.05,77.61875 L 120.9,77.3" />
      <path d="M 119.1,52.7 A 9.124143795447422,9.124143795447422 9.462322208025604 0,0 120.0,50.0 A 9.124143795447422,9.124143795447422 170.53767779197437 0,0 120.9,52.7 L 120.05,52.38125 L 120.05,61.453501 L 119.95,61.453501 L 119.95,52.38125 L 119.1,52.7" />
      <path d="M 119.588999,63.762505 Q 119.381997,63.768501 119.2575,63.854004 Q 119.133003,63.939507 119.133003,64.167505 Q 119.133003,64.341509 119.230503,64.442007 Q 119.328003,64.542505 119.496001,64.542505 Q 119.691001,64.542505 119.757002,64.424004 Q 119.823003,64.305503 119.828999,64.020503 L 120.053999,64.020503 L 120.053999,64.053501 L 120.051001,64.164507 Q 120.051001,64.605503 120.438003,64.605503 Q 120.638999,64.605503 120.751499,64.488506 Q 120.863999,64.371509 120.863999,64.164507 Q 120.863999,63.948501 120.752998,63.840503 Q 120.641997,63.732505 120.411001,63.717505 L 120.411001,63.453501 Q 121.098003,63.501509 121.098003,64.155503 Q 121.098003,64.482505 120.918003,64.679004 Q 120.738003,64.875503 120.434995,64.875503 Q 120.231001,64.875503 120.1125,64.791504 Q 119.993999,64.707505 119.928003,64.515503 Q 119.811001,64.812505 119.486997,64.812505 Q 119.213999,64.812505 119.057998,64.640005 Q 118.901997,64.467505 118.901997,64.164507 Q 118.901997,63.513501 119.588999,63.498501 L 119.588999,63.762505" />
      <path d="M 119.999995,65.154507 C 120.713497,65.153258 121.100504,65.39575 121.098003,65.850503 C 121.098003,66.076506 121.005503,66.249006 120.820503,66.368003 C 120.635503,66.487 120.368003,66.546499 120.018003,66.546499 C 119.273999,66.546499 118.901997,66.3145 118.901997,65.850503 C 118.901997,65.7845 118.909997,65.722 118.925996,65.663003 C 118.941995,65.604006 118.973996,65.542507 119.021997,65.478506 C 119.069998,65.414505 119.132498,65.359505 119.209497,65.313506 C 119.360836,65.223695 119.646664,65.152319 119.999995,65.154507 M 119.993999,66.276499 C 120.600184,66.27525 120.876812,66.141746 120.878999,65.844507 C 120.878999,65.564507 120.587,65.424507 120.003003,65.424507 C 119.425002,65.424507 119.136001,65.566506 119.136001,65.850503 C 119.136001,66.1345 119.422,66.276499 119.993999,66.276499" />
      <path d="M 29.95,172.0 L 29.95,162.0 L 30.05,162.0 L 30.05,172.0 L 29.95,172.0" />
      <path d="M 54.95,172.0 L 54.95,162.0 L 55.05,162.0 L 55.05,172.0 L 54.95,172.0" />
      <path d="M 52.3,169.1 A 9.124143795447422,9.124143795447422 99.46232220802563 0,0 55.0,170.0 A 9.124143795447422,9.124143795447422 -99.46232220802563 0,0 52.3,170.9 L 52.61875,170.05 L 46.0525,170.05 L 46.0525,169.95 L 52.61875,169.95 L 52.3,169.1" />
      <path d="M 32.7,170.9 A 9.124143795447422,9.124143795447422 -80.53767779197439 0,0 30.0,170.0 A 9.124143795447422,9.124143795447422 80.53767779197437 0,0 32.7,169.1 L 32.38125,169.95 L 38.9475,169.95 L 38.9475,170.05 L 32.38125,170.05 L 32.7,170.9" />
      <path d="M 40.995498,170.360005 L 41.259502,170.360005 Q 41.289502,170.866997 41.688496,170.866997 Q 41.868496,170.866997 41.988496,170.752998 Q 42.108496,170.638999 42.108496,170.468003 Q 42.108496,170.213003 41.820498,170.048003 L 41.544502,169.891997 Q 41.211494,169.703003 41.088496,169.5125 Q 40.965498,169.321997 40.9475,168.971001 L 42.363496,168.971001 L 42.363496,169.231997 L 41.244502,169.231997 Q 41.265498,169.366997 41.349497,169.466001 Q 41.433496,169.565005 41.628496,169.670005 L 41.928496,169.831997 Q 42.378496,170.078003 42.378496,170.473999 Q 42.378496,170.750005 42.189497,170.924004 Q 42.000498,171.098003 41.6975,171.098003 Q 41.016494,171.098003 40.995498,170.360005" />
      <path d="M 43.941494,171.098003 L 42.843496,171.098003 L 42.684492,169.940005 L 42.9275,169.940005 Q 43.020498,170.051001 43.107495,170.094502 Q 43.194492,170.138003 43.3175,170.138003 Q 43.530498,170.138003 43.656499,170.001504 Q 43.7825,169.865005 43.7825,169.628003 Q 43.7825,169.400005 43.657998,169.268003 Q 43.533496,169.136001 43.3175,169.136001 Q 42.975498,169.136001 42.8825,169.493003 L 42.618496,169.493003 C 42.624499,169.458999 42.629499,169.432998 42.633496,169.415 C 42.637493,169.397002 42.647993,169.364502 42.664995,169.3175 C 42.681997,169.270498 42.699998,169.231497 42.718999,169.200498 C 42.738,169.169499 42.765999,169.133499 42.802998,169.0925 C 42.839997,169.051501 42.880996,169.018501 42.925996,168.993501 C 43.014277,168.94522 43.161218,168.900278 43.323496,168.901997 C 43.537493,168.901997 43.712493,168.972998 43.848496,169.115 C 43.984499,169.257002 44.0525,169.440002 44.0525,169.663999 C 44.0525,169.873999 43.988999,170.044499 43.861997,170.175498 C 43.734995,170.306497 43.569495,170.371997 43.365498,170.371997 C 43.221494,170.371997 43.090495,170.328999 42.9725,170.243003 L 43.056494,170.836997 L 43.941494,170.836997 L 43.941494,171.098003" />
      <path d="M 29.95,183.5 L 29.95,162.0 L 30.05,162.0 L 30.05,183.5 L 29.95,183.5" />
      <path d="M 84.95,183.5 L 84.95,162.0 L 85.05,162.0 L 85.05,183.5 L 84.95,183.5" />
      <path d="M 82.3,180.6 A 9.124143795447422,9.124143795447422 99.46232220802563 0,0 85.0,181.5 A 9.124143795447422,9.124143795447422 -99.46232220802563 0,0 82.3,182.4 L 82.61875,181.55 L 61.051001,181.55 L 61.051001,181.45 L 82.61875,181.45 L 82.3,180.6" />
      <path d="M 32.7,182.4 A 9.124143795447422,9.124143795447422 -80.53767779197439 0,0 30.0,181.5 A 9.124143795447422,9.124143795447422 80.53767779197437 0,0 32.7,180.6 L 32.38125,181.45 L 53.948999,181.45 L 53.948999,181.55 L 32.38125,181.55 L 32.7,182.4" />
      <path d="M 57.271997,182.598003 L 56.173999,182.598003 L 56.014995,181.440005 L 56.258003,181.440005 Q 56.351001,181.551001 56.437998,181.594502 Q 56.524995,181.638003 56.648003,181.638003 Q 56.861001,181.638003 56.987002,181.501504 Q 57.113003,181.365005 57.113003,181.128003 Q 57.113003,180.900005 56.988501,180.768003 Q 56.863999,180.636001 56.648003,180.636001 Q 56.306001,180.636001 56.213003,180.993003 L 55.948999,180.993003 C 55.955002,180.958999 55.960002,180.932998 55.963999,180.915 C 55.967996,180.897002 55.978496,180.864502 55.995498,180.8175 C 56.0125,180.770498 56.030501,180.731497 56.049502,180.700498 C 56.068503,180.669499 56.096502,180.633499 56.133501,180.5925 C 56.1705,180.551501 56.211499,180.518501 56.256499,180.493501 C 56.34478,180.44522 56.491721,180.400278 56.653999,180.401997 C 56.867996,180.401997 57.042996,180.472998 57.178999,180.615 C 57.315002,180.757002 57.383003,180.940002 57.383003,181.163999 C 57.383003,181.373999 57.319502,181.544499 57.1925,181.675498 C 57.065498,181.806497 56.899998,181.871997 56.696001,181.871997 C 56.551997,181.871997 56.420998,181.828999 56.303003,181.743003 L 56.386997,182.336997 L 57.271997,182.336997 L 57.271997,182.598003" />
      <path d="M 58.939995,182.598003 L 57.841997,182.598003 L 57.682993,181.440005 L 57.926001,181.440005 Q 58.018999,181.551001 58.105996,181.594502 Q 58.192993,181.638003 58.316001,181.638003 Q 58.528999,181.638003 58.655,181.501504 Q 58.781001,181.365005 58.781001,181.128003 Q 58.781001,180.900005 58.656499,180.768003 Q 58.531997,180.636001 58.316001,180.636001 Q 57.973999,180.636001 57.881001,180.993003 L 57.616997,180.993003 C 57.623,180.958999 57.628,180.932998 57.631997,180.915 C 57.635994,180.897002 57.646494,180.864502 57.663496,180.8175 C 57.680498,180.770498 57.698499,180.731497 57.7175,180.700498 C 57.736501,180.669499 57.7645,180.633499 57.801499,180.5925 C 57.838498,180.551501 57.879497,180.518501 57.924497,180.493501 C 58.012778,180.44522 58.159719,180.400278 58.321997,180.401997 C 58.535994,180.401997 58.710994,180.472998 58.846997,180.615 C 58.983,180.757002 59.051001,180.940002 59.051001,181.163999 C 59.051001,181.373999 58.9875,181.544499 58.860498,181.675498 C 58.733496,181.806497 58.567996,181.871997 58.363999,181.871997 C 58.219995,181.871997 58.088996,181.828999 57.971001,181.743003 L 58.054995,182.336997 L 58.939995,182.336997 L 58.939995,182.598003" />
      <path d="M 129.95,92.0 L 129.95,82.0 L 130.05,82.0 L 130.05,92.0 L 129.95,92.0" />
      <path d="M 149.95,92.0 L 149.95,82.0 L 150.05,82.0 L 150.05,92.0 L 149.95,92.0" />
      <path d="M 147.3,89.1 A 9.124143795447422,9.124143795447422 99.46232220802563 0,0 150.0,90.0 A 9.124143795447422,9.124143795447422 -99.46232220802563 0,0 147.3,90.9 L 147.61875,90.05 L 143.543496,90.05 L 143.543496,89.95 L 147.61875,89.95 L 147.3,89.1" />
      <path d="M 132.7,90.9 A 9.124143795447422,9.124143795447422 -80.53767779197439 0,0 130.0,90.0 A 9.124143795447422,9.124143795447422 80.53767779197437 0,0 132.7,89.1 L 132.38125,89.95 L 136.456504,89.95 L 136.456504,90.05 L 132.38125,90.05 L 132.7,90.9" />
      <path d="M 138.504502,90.360005 L 138.768506,90.360005 Q 138.798506,90.866997 139.1975,90.866997 Q 139.3775,90.866997 139.4975,90.752998 Q 139.6175,90.638999 139.6175,90.468003 Q 139.6175,90.213003 139.329502,90.048003 L 139.053506,89.891997 Q 138.720498,89.703003 138.5975,89.5125 Q 138.474502,89.321997 138.456504,88.971001 L 139.8725,88.971001 L 139.8725,89.231997 L 138.753506,89.231997 Q 138.774502,89.366997 138.858501,89.466001 Q 138.9425,89.565005 139.1375,89.670005 L 139.4375,89.831997 Q 139.8875,90.078003 139.8875,90.473999 Q 139.8875,90.750005 139.698501,90.924004 Q 139.509502,91.098003 139.206504,91.098003 Q 138.525498,91.098003 138.504502,90.360005" />
      <path d="M 140.151504,90.000005 C 140.150255,89.286503 140.392747,88.899496 140.8475,88.901997 C 141.073503,88.901997 141.246003,88.994497 141.365,89.179497 C 141.483997,89.364497 141.543496,89.631997 141.543496,89.981997 C 141.543496,90.726001 141.311497,91.098003 140.8475,91.098003 C 140.713618,91.095502 140.605381,91.076506 140.475503,90.978003 C 140.411502,90.930002 140.356502,90.867502 140.310503,90.790503 C 140.220692,90.639164 140.149316,90.353336 140.151504,90.000005 M 141.273496,90.006001 C 141.272247,89.399816 141.138743,89.123188 140.841504,89.121001 C 140.561504,89.121001 140.421504,89.413 140.421504,89.996997 C 140.421504,90.574998 140.563503,90.863999 140.8475,90.863999 C 141.131497,90.863999 141.273496,90.578 141.273496,90.006001" />
      <path d="M 129.95,103.5 L 129.95,82.0 L 130.05,82.0 L 130.05,103.5 L 129.95,103.5" />
      <path d="M 169.95,103.5 L 169.95,82.0 L 170.05,82.0 L 170.05,103.5 L 169.95,103.5" />
      <path d="M 167.3,100.6 A 9.124143795447422,9.124143795447422 99.46232220802563 0,0 170.0,101.5 A 9.124143795447422,9.124143795447422 -99.46232220802563 0,0 167.3,102.4 L 167.61875,101.55 L 153.552495,101.55 L 153.552495,101.45 L 167.61875,101.45 L 167.3,100.6" />
      <path d="M 132.7,102.4 A 9.124143795447422,9.124143795447422 -80.53767779197439 0,0 130.0,101.5 A 9.124143795447422,9.124143795447422 80.53767779197437 0,0 132.7,100.6 L 132.38125,101.45 L 146.447505,101.45 L 146.447505,101.55 L 132.38125,101.55 L 132.7,102.4" />
      <path d="M 149.344497,100.981001 L 149.344497,100.471001 L 149.608501,100.471001 L 149.608501,100.981001 L 149.923501,100.981001 L 149.923501,101.218003 L 149.608501,101.218003 L 149.608501,102.598003 L 149.413501,102.598003 L 148.447505,101.260005 L 148.447505,100.981001 L 149.344497,100.981001 M 149.344497,101.218003 L 148.678501,101.218003 L 149.344497,102.148003 L 149.344497,101.218003" />
      <path d="M 150.160503,101.500005 C 150.159254,100.786503 150.401746,100.399496 150.856499,100.401997 C 151.082502,100.401997 151.255002,100.494497 151.373999,100.679497 C 151.492996,100.864497 151.552495,101.131997 151.552495,101.481997 C 151.552495,102.226001 151.320496,102.598003 150.856499,102.598003 C 150.722617,102.595502 150.61438,102.576506 150.484502,102.478003 C 150.420501,102.430002 150.365501,102.367502 150.319502,102.290503 C 150.229691,102.139164 150.158315,101.853336 150.160503,101.500005 M 151.282495,101.506001 C 151.281246,100.899816 151.147742,100.623188 150.850503,100.621001 C 150.570503,100.621001 150.430503,100.913 150.430503,101.496997 C 150.430503,102.074998 150.572502,102.363999 150.856499,102.363999 C 151.140496,102.363999 151.282495,102.078 151.282495,101.506001" />
      <path d="M 30.05,88.0 L 30.05,96.0 L 29.95,96.0 L 29.95,88.0 L 30.05,88.0" />
      <path d="M 110.05,88.0 L 110.05,96.0 L 109.95,96.0 L 109.95,88.0 L 110.05,88.0" />
      <path d="M 107.3,89.1 A 9.124143795447422,9.124143795447422 99.46232220802563 0,0 110.0,90.0 A 9.124143795447422,9.124143795447422 -99.46232220802563 0,0 107.3,90.9 L 107.61875,90.05 L 73.538999,90.05 L 73.538999,89.95 L 107.61875,89.95 L 107.3,89.1" />
      <path d="M 32.7,90.9 A 9.124143795447422,9.124143795447422 -80.53767779197439 0,0 30.0,90.0 A 9.124143795447422,9.124143795447422 80.53767779197437 0,0 32.7,89.1 L 32.38125,89.95 L 66.461001,89.95 L 66.461001,90.05 L 32.38125,90.05 L 32.7,90.9" />
      <path d="M 68.824009,90.090005 Q 68.461001,89.916001 68.461001,89.561997 Q 68.461001,89.271001 68.660503,89.086499 Q 68.860005,88.901997 69.175005,88.901997 Q 69.490005,88.901997 69.689507,89.085 Q 69.889009,89.268003 69.889009,89.558999 Q 69.889009,89.916001 69.523003,90.090005 Q 69.688003,90.188999 69.751006,90.285 Q 69.814009,90.381001 69.814009,90.531001 Q 69.814009,90.780005 69.635508,90.939004 Q 69.457007,91.098003 69.175005,91.098003 Q 68.893003,91.098003 68.714502,90.939004 Q 68.536001,90.780005 68.536001,90.531001 Q 68.536001,90.383999 68.599004,90.287998 Q 68.662007,90.191997 68.824009,90.090005 M 69.443506,90.7725 Q 69.544009,90.681001 69.544009,90.525005 Q 69.544009,90.375005 69.442007,90.285005 Q 69.340005,90.195005 69.175005,90.195005 Q 69.007007,90.195005 68.906504,90.286504 Q 68.806001,90.378003 68.806001,90.528003 Q 68.806001,90.681001 68.906504,90.7725 Q 69.007007,90.863999 69.175005,90.863999 Q 69.343003,90.863999 69.443506,90.7725 M 69.496006,89.8575 Q 69.619009,89.741997 69.619009,89.556001 Q 69.619009,89.366997 69.494507,89.251499 Q 69.370005,89.136001 69.169009,89.136001 Q 68.974009,89.136001 68.852505,89.253003 Q 68.731001,89.370005 68.731001,89.556001 Q 68.731001,89.741997 68.854004,89.8575 Q 68.977007,89.973003 69.175005,89.973003 Q 69.373003,89.973003 69.496006,89.8575" />
      <path d="M 70.147007,90.000005 C 70.145758,89.286503 70.38825,88.899496 70.843003,88.901997 C 71.069006,88.901997 71.241506,88.994497 71.360503,89.179497 C 71.4795,89.364497 71.538999,89.631997 71.538999,89.981997 C 71.538999,90.726001 71.307,91.098003 70.843003,91.098003 C 70.709121,91.095502 70.600884,91.076506 70.471006,90.978003 C 70.407005,90.930002 70.352005,90.867502 70.306006,90.790503 C 70.260007,90.713504 70.222007,90.607004 70.192007,90.471001 C 70.162007,90.334998 70.147007,90.178 70.147007,90.000005 M 71.268999,90.006001 C 71.26775,89.399816 71.134246,89.123188 70.837007,89.121001 C 70.557007,89.121001 70.417007,89.413 70.417007,89.996997 C 70.417007,90.574998 70.559006,90.863999 70.843003,90.863999 C 71.127,90.863999 71.268999,90.578 71.268999,90.006001" />
      <path d="M 130.05,38.0 L 130.05,46.0 L 129.95,46.0 L 129.95,38.0 L 130.05,38.0" />
      <path d="M 190.05,38.0 L 190.05,46.0 L 189.95,46.0 L 189.95,38.0 L 190.05,38.0" />
      <path d="M 187.3,39.1 A 9.124143795447422,9.124143795447422 99.46232220802563 0,0 190.0,40.0 A 9.124143795447422,9.124143795447422 -99.46232220802563 0,0 187.3,40.9 L 187.61875,40.05 L 163.529995,40.05 L 163.529995,39.95 L 187.61875,39.95 L 187.3,39.1" />
      <path d="M 132.7,40.9 A 9.124143795447422,9.124143795447422 -80.53767779197439 0,0 130.0,40.0 A 9.124143795447422,9.124143795447422 80.53767779197437 0,0 132.7,39.1 L 132.38125,39.95 L 156.470005,39.95 L 156.470005,40.05 L 132.38125,40.05 L 132.7,40.9" />
      <path d="M 159.835005,40.543003 Q 159.796001,40.803999 159.635503,40.951001 Q 159.475005,41.098003 159.231997,41.098003 Q 159.126997,41.098003 159.0325,41.074004 Q 158.938003,41.050005 158.831504,40.973501 Q 158.725005,40.896997 158.648501,40.773999 Q 158.571997,40.651001 158.521001,40.436499 Q 158.470005,40.221997 158.470005,39.940005 Q 158.470005,38.901997 159.183999,38.901997 Q 159.486997,38.901997 159.683501,39.104497 Q 159.880005,39.306997 159.880005,39.618999 Q 159.880005,39.916001 159.697002,40.105 Q 159.513999,40.293999 159.228999,40.293999 Q 158.913999,40.293999 158.740005,40.056997 C 158.742752,40.574184 158.911252,40.866812 159.213999,40.863999 C 159.396433,40.865562 159.528567,40.745438 159.571001,40.543003 L 159.835005,40.543003 M 159.196001,40.060005 Q 159.388003,40.060005 159.499004,39.935503 Q 159.610005,39.811001 159.610005,39.598003 Q 159.610005,39.396997 159.490005,39.266499 Q 159.370005,39.136001 159.186997,39.136001 Q 159.001001,39.136001 158.878003,39.2725 Q 158.755005,39.408999 158.755005,39.613003 Q 158.755005,39.811001 158.878003,39.935503 Q 159.001001,40.060005 159.196001,40.060005" />
      <path d="M 160.138003,40.000005 C 160.136754,39.286503 160.379246,38.899496 160.833999,38.901997 C 161.060002,38.901997 161.232502,38.994497 161.351499,39.179497 C 161.470496,39.364497 161.529995,39.631997 161.529995,39.981997 C 161.529995,40.726001 161.297996,41.098003 160.833999,41.098003 C 160.700117,41.095502 160.59188,41.076506 160.462002,40.978003 C 160.398001,40.930002 160.343001,40.867502 160.297002,40.790503 C 160.207191,40.639164 160.135815,40.353336 160.138003,40.000005 M 161.259995,40.006001 C 161.258746,39.399816 161.125242,39.123188 160.828003,39.121001 C 160.548003,39.121001 160.408003,39.413 160.408003,39.996997 C 160.408003,40.574998 160.550002,40.863999 160.833999,40.863999 C 161.117996,40.863999 161.259995,40.578 161.259995,40.006001" />
      <path d="M 286.0,11.075 L 166.0,11.075 L 166.0,10.925 L 286.0,10.925 L 286.0,11.075" />
      <path d="M 285.925,27.0 L 285.925,11.0 L 286.075,11.0 L 286.075,27.0 L 285.925,27.0" />
      <path d="M 166.0,26.925 L 286.0,26.925 L 286.0,27.075 L 166.0,27.075 L 166.0,26.925" />
      <path d="M 166.075,11.0 L 166.075,27.0 L 165.925,27.0 L 165.925,11.0 L 166.075,11.0" />
      <path d="M 286.0,19.075 L 166.0,19.075 L 166.0,18.925 L 286.0,18.925 L 286.0,19.075" />
      <path d="M 213.925,27.0 L 213.925,19.0 L 214.075,19.0 L 214.075,27.0 L 213.925,27.0" />
      <path d="M 237.925,27.0 L 237.925,19.0 L 238.075,19.0 L 238.075,27.0 L 237.925,27.0" />
      <path d="M 255.925,27.0 L 255.925,19.0 L 256.075,19.0 L 256.075,27.0 L 255.925,27.0" />
      <path d="M 273.925,27.0 L 273.925,19.0 L 274.075,19.0 L 274.075,27.0 L 273.925,27.0" />
      <path d="M 213.925,19.0 L 213.925,11.0 L 214.075,11.0 L 214.075,19.0 L 213.925,19.0" />
      <path d="M 183.923501,24.047002 L 183.923501,21.952998 L 184.580493,21.952998 Q 184.943501,21.952998 185.141499,22.203496 Q 185.339497,22.453994 185.339497,23.0 Q 185.339497,23.545996 185.141499,23.796499 Q 184.943501,24.047002 184.580493,24.047002 L 183.923501,24.047002 M 184.580493,22.162998 L 184.163501,22.162998 L 184.163501,23.837002 L 184.580493,23.837002 Q 184.805493,23.837002 184.943496,23.681001 Q 185.081499,23.525 185.081499,23.233994 L 185.081499,22.765996 Q 185.081499,22.475 184.943496,22.318999 Q 184.805493,22.162998 184.580493,22.162998" />
      <path d="M 185.984497,21.952998 L 185.984497,22.852998 L 186.422495,22.852998 L 186.815493,21.952998 L 187.085493,21.952998 L 186.662495,22.867998 Q 187.034497,22.945996 187.034497,23.45 Q 187.034497,24.047002 186.515493,24.047002 L 185.744497,24.047002 L 185.744497,21.952998 L 185.984497,21.952998 M 186.509497,23.057002 L 185.984497,23.057002 L 185.984497,23.837002 L 186.509497,23.837002 Q 186.776489,23.837002 186.776489,23.548994 L 186.776489,23.345 Q 186.776489,23.057002 186.509497,23.057002" />
      <path d="M 188.657495,21.952998 L 188.903501,21.952998 L 188.246499,24.047002 L 187.946499,24.047002 L 187.292495,21.952998 L 187.532495,21.952998 L 187.718501,22.58 L 188.471499,22.58 L 188.657495,21.952998 M 188.174497,23.572998 L 188.417495,22.777998 L 187.775493,22.777998 L 188.012495,23.572998 L 188.078501,23.833994 L 188.108501,23.833994 L 188.174497,23.572998" />
      <path d="M 189.482495,21.952998 L 189.782495,21.952998 L 190.088501,23.305996 L 190.163501,23.837002 L 190.193501,23.837002 L 190.268501,23.305996 L 190.556499,21.952998 L 190.856499,21.952998 L 191.333501,24.047002 L 191.090503,24.047002 L 190.808501,22.693994 L 190.733501,22.192998 L 190.703501,22.192998 L 190.628501,22.693994 L 190.343501,24.047002 L 190.019497,24.047002 L 189.734497,22.693994 L 189.659497,22.192998 L 189.629497,22.192998 L 189.554497,22.693994 L 189.272495,24.047002 L 189.023501,24.047002 L 189.482495,21.952998" />
      <path d="M 191.549507,21.952998 L 192.317505,21.952998 L 192.317505,22.150996 L 192.053501,22.150996 L 192.053501,23.848994 L 192.317505,23.848994 L 192.317505,24.047002 L 191.549507,24.047002 L 191.549507,23.848994 L 191.813501,23.848994 L 191.813501,22.150996 L 191.549507,22.150996 L 191.549507,21.952998" />
      <path d="M 193.151499,23.312002 L 193.847495,21.952998 L 194.141499,21.952998 L 194.141499,24.047002 L 193.907495,24.047002 L 193.907495,22.687998 L 193.928501,22.255996 L 193.898501,22.255996 L 193.715503,22.687998 L 193.019497,24.047002 L 192.725503,24.047002 L 192.725503,21.952998 L 192.959497,21.952998 L 192.959497,23.312002 L 192.938501,23.743994 L 192.968501,23.743994 L 193.151499,23.312002" />
      <path d="M 195.854497,22.243994 L 195.854497,21.952998 L 196.076499,21.952998 L 196.076499,23.023994 L 195.428491,23.023994 L 195.428491,22.813994 L 195.842495,22.813994 L 195.842495,22.585996 Q 195.842495,22.477998 195.803496,22.3925 Q 195.764497,22.307002 195.696997,22.248501 Q 195.629497,22.19 195.537998,22.16 Q 195.446499,22.13 195.344497,22.13 Q 195.083491,22.13 194.942495,22.3025 Q 194.801499,22.475 194.801499,22.765996 L 194.801499,23.233994 Q 194.801499,23.525 194.942495,23.6975 Q 195.083491,23.87 195.344497,23.87 Q 195.539497,23.87 195.662495,23.776997 Q 195.785493,23.683994 195.845493,23.518994 L 196.043491,23.638994 Q 195.950493,23.845996 195.785493,23.964497 Q 195.620493,24.082998 195.344497,24.082998 Q 194.963491,24.082998 194.753491,23.821997 Q 194.543491,23.560996 194.543491,23.0 Q 194.543491,22.720996 194.598994,22.515498 Q 194.654497,22.31 194.753496,22.177998 Q 194.852495,22.045996 194.993496,21.981499 Q 195.134497,21.917002 195.305493,21.917002 Q 195.536499,21.917002 195.663999,22.01 Q 195.791499,22.102998 195.824497,22.243994 L 195.854497,22.243994" />
      <path d="M 220.162002,24.047002 L 220.162002,21.952998 L 220.818994,21.952998 Q 221.182002,21.952998 221.38,22.203496 Q 221.577998,22.453994 221.577998,23.0 Q 221.577998,23.545996 221.38,23.796499 Q 221.182002,24.047002 220.818994,24.047002 L 220.162002,24.047002 M 220.818994,22.162998 L 220.402002,22.162998 L 220.402002,23.837002 L 220.818994,23.837002 Q 221.043994,23.837002 221.181997,23.681001 Q 221.32,23.525 221.32,23.233994 L 221.32,22.765996 Q 221.32,22.475 221.181997,22.318999 Q 221.043994,22.162998 220.818994,22.162998" />
      <path d="M 222.24999,21.952998 L 222.54999,21.952998 L 222.855996,23.305996 L 222.930996,23.837002 L 222.960996,23.837002 L 223.035996,23.305996 L 223.323994,21.952998 L 223.623994,21.952998 L 224.100996,24.047002 L 223.857998,24.047002 L 223.575996,22.693994 L 223.500996,22.192998 L 223.470996,22.192998 L 223.395996,22.693994 L 223.110996,24.047002 L 222.786992,24.047002 L 222.501992,22.693994 L 222.426992,22.192998 L 222.396992,22.192998 L 222.321992,22.693994 L 222.03999,24.047002 L 221.790996,24.047002 L 222.24999,21.952998" />
      <path d="M 225.625,22.243994 L 225.625,21.952998 L 225.847002,21.952998 L 225.847002,23.023994 L 225.198994,23.023994 L 225.198994,22.813994 L 225.612998,22.813994 L 225.612998,22.585996 Q 225.612998,22.477998 225.573999,22.3925 Q 225.535,22.307002 225.4675,22.248501 Q 225.4,22.19 225.308501,22.16 Q 225.217002,22.13 225.115,22.13 Q 224.853994,22.13 224.712998,22.3025 Q 224.572002,22.475 224.572002,22.765996 L 224.572002,23.233994 Q 224.572002,23.525 224.712998,23.6975 Q 224.853994,23.87 225.115,23.87 Q 225.31,23.87 225.432998,23.776997 Q 225.555996,23.683994 225.615996,23.518994 L 225.813994,23.638994 Q 225.720996,23.845996 225.555996,23.964497 Q 225.390996,24.082998 225.115,24.082998 Q 224.733994,24.082998 224.523994,23.821997 Q 224.313994,23.560996 224.313994,23.0 Q 224.313994,22.720996 224.369497,22.515498 Q 224.425,22.31 224.523999,22.177998 Q 224.622998,22.045996 224.763999,21.981499 Q 224.905,21.917002 225.075996,21.917002 Q 225.307002,21.917002 225.434502,22.01 Q 225.562002,22.102998 225.595,22.243994 L 225.625,22.243994" />
      <path d="M 226.218994,22.742002 L 226.938994,22.742002 L 226.938994,22.987998 L 226.218994,22.987998 L 226.218994,22.742002" />
      <path d="M 227.634995,21.977002 Q 227.757998,21.917002 227.928994,21.917002 Q 228.09999,21.917002 228.222993,21.977002 Q 228.345996,22.037002 228.425493,22.1675 Q 228.50499,22.297998 228.543994,22.503496 Q 228.582998,22.708994 228.582998,23.0 Q 228.582998,23.290996 228.543994,23.496499 Q 228.50499,23.702002 228.425493,23.8325 Q 228.345996,23.962998 228.222993,24.022998 Q 228.09999,24.082998 227.928994,24.082998 Q 227.757998,24.082998 227.634995,24.022998 Q 227.511992,23.962998 227.432495,23.8325 Q 227.352998,23.702002 227.313994,23.496499 Q 227.27499,23.290996 227.27499,23.0 Q 227.27499,22.708994 227.313994,22.503496 Q 227.352998,22.297998 227.432495,22.1675 Q 227.511992,22.037002 227.634995,21.977002 M 228.237993,22.278496 Q 228.14499,22.123994 227.928994,22.123994 Q 227.712998,22.123994 227.619995,22.278496 Q 227.526992,22.432998 227.526992,22.712002 L 227.526992,23.287998 Q 227.526992,23.567002 227.619995,23.721499 Q 227.712998,23.875996 227.928994,23.875996 Q 228.14499,23.875996 228.237993,23.721499 Q 228.330996,23.567002 228.330996,23.287998 L 228.330996,22.712002 Q 228.330996,22.432998 228.237993,22.278496" />
      <path d="M 229.254995,21.977002 Q 229.377998,21.917002 229.548994,21.917002 Q 229.71999,21.917002 229.842993,21.977002 Q 229.965996,22.037002 230.045493,22.1675 Q 230.12499,22.297998 230.163994,22.503496 Q 230.202998,22.708994 230.202998,23.0 Q 230.202998,23.290996 230.163994,23.496499 Q 230.12499,23.702002 230.045493,23.8325 Q 229.965996,23.962998 229.842993,24.022998 Q 229.71999,24.082998 229.548994,24.082998 Q 229.377998,24.082998 229.254995,24.022998 Q 229.131992,23.962998 229.052495,23.8325 Q 228.972998,23.702002 228.933994,23.496499 Q 228.89499,23.290996 228.89499,23.0 Q 228.89499,22.708994 228.933994,22.503496 Q 228.972998,22.297998 229.052495,22.1675 Q 229.131992,22.037002 229.254995,21.977002 M 229.857993,22.278496 Q 229.76499,22.123994 229.548994,22.123994 Q 229.332998,22.123994 229.239995,22.278496 Q 229.146992,22.432998 229.146992,22.712002 L 229.146992,23.287998 Q 229.146992,23.567002 229.239995,23.721499 Q 229.332998,23.875996 229.548994,23.875996 Q 229.76499,23.875996 229.857993,23.721499 Q 229.950996,23.567002 229.950996,23.287998 L 229.950996,22.712002 Q 229.950996,22.432998 229.857993,22.278496" />
      <path d="M 230.595996,21.952998 L 231.837998,21.952998 L 231.837998,22.162998 L 231.357998,22.162998 L 231.357998,24.047002 L 230.99499,24.047002 L 230.520996,23.605996 L 230.655996,23.458994 L 231.09999,23.87 L 231.117998,23.87 L 231.117998,22.162998 L 230.595996,22.162998 L 230.595996,21.952998" />
      <path d="M 245.219497,21.970996 L 246.461499,21.970996 L 246.461499,22.180996 L 245.981499,22.180996 L 245.981499,24.065 L 245.618491,24.065 L 245.144497,23.623994 L 245.279497,23.476992 L 245.723491,23.887998 L 245.741499,23.887998 L 245.741499,22.180996 L 245.219497,22.180996 L 245.219497,21.970996" />
      <path d="M 246.812495,22.087998 Q 246.812495,21.935 246.989497,21.935 Q 247.166499,21.935 247.166499,22.087998 L 247.166499,22.135996 Q 247.166499,22.288994 246.989497,22.288994 Q 246.812495,22.288994 246.812495,22.135996 L 246.812495,22.087998" />
      <path d="M 246.812495,23.335996 Q 246.812495,23.182998 246.989497,23.182998 Q 247.166499,23.182998 247.166499,23.335996 L 247.166499,23.383994 Q 247.166499,23.536992 246.989497,23.536992 Q 246.812495,23.536992 246.812495,23.383994 L 246.812495,23.335996" />
      <path d="M 247.613501,21.970996 L 248.855503,21.970996 L 248.855503,22.180996 L 248.375503,22.180996 L 248.375503,24.065 L 248.012495,24.065 L 247.538501,23.623994 L 247.673501,23.476992 L 248.117495,23.887998 L 248.135503,23.887998 L 248.135503,22.180996 L 247.613501,22.180996 L 247.613501,21.970996" />
      <path d="M 280.559497,21.952998 L 280.805503,21.952998 L 280.148501,24.047002 L 279.848501,24.047002 L 279.194497,21.952998 L 279.434497,21.952998 L 279.620503,22.58 L 280.373501,22.58 L 280.559497,21.952998 M 280.076499,23.572998 L 280.319497,22.777998 L 279.677495,22.777998 L 279.914497,23.572998 L 279.980503,23.833994 L 280.010503,23.833994 L 280.076499,23.572998" />
      <path d="M 182.620005,13.952998 L 183.388003,13.952998 L 183.388003,14.150996 L 183.123999,14.150996 L 183.123999,15.848994 L 183.388003,15.848994 L 183.388003,16.047002 L 182.620005,16.047002 L 182.620005,15.848994 L 182.883999,15.848994 L 182.883999,14.150996 L 182.620005,14.150996 L 182.620005,13.952998" />
      <path d="M 183.936997,14.011499 Q 184.104995,13.917002 184.329995,13.917002 Q 184.638999,13.917002 184.814497,14.071499 Q 184.989995,14.225996 184.989995,14.522998 Q 184.989995,14.652002 184.961494,14.749502 Q 184.932993,14.847002 184.868496,14.918999 Q 184.803999,14.990996 184.701997,15.040498 Q 184.599995,15.09 184.452993,15.125996 L 184.296997,15.165 Q 184.113999,15.21 184.031499,15.287998 Q 183.948999,15.365996 183.948999,15.518994 Q 183.948999,15.707998 184.049497,15.791997 Q 184.149995,15.875996 184.341997,15.875996 Q 184.512993,15.875996 184.616494,15.811499 Q 184.719995,15.747002 184.801001,15.620996 L 184.977993,15.747002 Q 184.866997,15.920996 184.718496,16.001997 Q 184.569995,16.082998 184.351001,16.082998 Q 184.062993,16.082998 183.888994,15.940498 Q 183.714995,15.797998 183.714995,15.518994 Q 183.714995,15.275996 183.845498,15.142495 Q 183.976001,15.008994 184.251997,14.94 L 184.407993,14.900996 Q 184.599995,14.852998 184.677998,14.768999 Q 184.756001,14.685 184.756001,14.522998 Q 184.756001,14.123994 184.329995,14.123994 Q 184.167993,14.123994 184.047993,14.200498 Q 183.927993,14.277002 183.831997,14.417998 L 183.657993,14.273994 Q 183.768999,14.105996 183.936997,14.011499" />
      <path d="M 185.487993,14.177998 Q 185.697993,13.917002 186.078999,13.917002 Q 186.459995,13.917002 186.669995,14.177998 Q 186.879995,14.438994 186.879995,15.0 Q 186.879995,15.560996 186.669995,15.821997 Q 186.459995,16.082998 186.078999,16.082998 Q 185.697993,16.082998 185.487993,15.821997 Q 185.277993,15.560996 185.277993,15.0 Q 185.277993,14.438994 185.487993,14.177998 M 186.480996,14.3025 Q 186.339995,14.13 186.078999,14.13 Q 185.817993,14.13 185.676997,14.3025 Q 185.536001,14.475 185.536001,14.765996 L 185.536001,15.233994 Q 185.536001,15.525 185.676997,15.6975 Q 185.817993,15.87 186.078999,15.87 Q 186.339995,15.87 186.480996,15.6975 Q 186.621997,15.525 186.621997,15.233994 L 186.621997,14.765996 Q 186.621997,14.475 186.480996,14.3025" />
      <path d="M 189.114995,13.952998 L 189.114995,14.162998 L 188.127993,14.162998 L 188.649995,14.712002 Q 188.766997,14.835 188.843496,14.9325 Q 188.919995,15.03 188.964995,15.118501 Q 189.009995,15.207002 189.027998,15.295498 Q 189.046001,15.383994 189.046001,15.485996 Q 189.046001,15.78 188.906499,15.931499 Q 188.766997,16.082998 188.472993,16.082998 Q 188.349995,16.082998 188.250996,16.048496 Q 188.151997,16.013994 188.075498,15.953994 Q 187.998999,15.893994 187.945,15.811494 Q 187.891001,15.728994 187.861001,15.632998 L 188.071001,15.548994 Q 188.109995,15.702002 188.207495,15.786001 Q 188.304995,15.87 188.466997,15.87 Q 188.793999,15.87 188.793999,15.495 L 188.793999,15.417002 Q 188.793999,15.285 188.726499,15.151499 Q 188.658999,15.017998 188.506001,14.862002 L 187.869995,14.202002 L 187.869995,13.952998 L 189.114995,13.952998" />
      <path d="M 189.762993,13.952998 L 190.017993,13.952998 L 190.719995,15.837002 L 190.719995,16.047002 L 189.474995,16.047002 L 189.474995,15.45 L 189.687993,15.45 L 189.687993,15.84 L 190.476997,15.84 L 189.762993,13.952998" />
      <path d="M 191.244995,14.119502 Q 191.406997,13.917002 191.721997,13.917002 Q 192.036997,13.917002 192.198999,14.098501 Q 192.361001,14.28 192.361001,14.607002 Q 192.361001,14.933994 192.211001,15.094497 Q 192.061001,15.255 191.806001,15.255 Q 191.626001,15.255 191.517998,15.169497 Q 191.409995,15.083994 191.361997,14.957998 L 191.331997,14.957998 Q 191.371001,15.143994 191.433999,15.292495 Q 191.496997,15.440996 191.586997,15.566997 Q 191.676997,15.692998 191.796997,15.808496 Q 191.916997,15.923994 192.069995,16.047002 L 191.761001,16.047002 Q 191.643999,15.965996 191.523999,15.835498 Q 191.403999,15.705 191.306499,15.533999 Q 191.208999,15.362998 191.145996,15.155996 Q 191.082993,14.948994 191.082993,14.712002 Q 191.082993,14.322002 191.244995,14.119502 M 192.01,14.233501 Q 191.911001,14.127002 191.721997,14.127002 Q 191.532993,14.127002 191.433994,14.233501 Q 191.334995,14.34 191.334995,14.555996 L 191.334995,14.615996 Q 191.334995,14.832002 191.433994,14.938501 Q 191.532993,15.045 191.721997,15.045 Q 191.911001,15.045 192.01,14.938501 Q 192.108999,14.832002 192.108999,14.615996 L 192.108999,14.555996 Q 192.108999,14.34 192.01,14.233501" />
      <path d="M 192.851494,14.078999 Q 193.017993,13.917002 193.341997,13.917002 Q 193.666001,13.917002 193.8325,14.078999 Q 193.998999,14.240996 193.998999,14.522998 Q 193.998999,14.762998 193.885,14.888999 Q 193.771001,15.015 193.599995,15.038994 L 193.599995,15.068994 Q 193.749995,15.102002 193.845996,15.227998 Q 193.941997,15.353994 193.941997,15.560996 Q 193.941997,15.825 193.784497,15.953999 Q 193.626997,16.082998 193.341997,16.082998 Q 193.056997,16.082998 192.899497,15.953999 Q 192.741997,15.825 192.741997,15.560996 Q 192.741997,15.353994 192.837998,15.227998 Q 192.933999,15.102002 193.083999,15.068994 L 193.083999,15.038994 Q 192.912993,15.015 192.798994,14.888999 Q 192.684995,14.762998 192.684995,14.522998 Q 192.684995,14.240996 192.851494,14.078999 M 193.640498,14.222998 Q 193.533999,14.127002 193.341997,14.127002 Q 193.149995,14.127002 193.043496,14.222998 Q 192.936997,14.318994 192.936997,14.502002 L 192.936997,14.58 Q 192.936997,14.762998 193.043496,14.858999 Q 193.149995,14.955 193.341997,14.955 Q 193.533999,14.955 193.640498,14.858999 Q 193.746997,14.762998 193.746997,14.58 L 193.746997,14.502002 Q 193.746997,14.318994 193.640498,14.222998 M 193.696001,15.482998 Q 193.696001,15.155996 193.341997,15.155996 Q 192.987993,15.155996 192.987993,15.482998 L 192.987993,15.545996 Q 192.987993,15.872998 193.341997,15.872998 Q 193.696001,15.872998 193.696001,15.545996 L 193.696001,15.482998" />
      <path d="M 194.331997,14.742002 L 195.051997,14.742002 L 195.051997,14.987998 L 194.331997,14.987998 L 194.331997,14.742002" />
      <path d="M 195.459995,13.952998 L 195.687993,13.952998 L 195.687993,15.008994 Q 195.687993,15.162002 195.779497,15.246001 Q 195.871001,15.33 196.006001,15.33 Q 196.158999,15.33 196.2325,15.231001 Q 196.306001,15.132002 196.306001,14.945996 L 196.306001,13.952998 L 196.533999,13.952998 L 196.533999,15.008994 Q 196.533999,15.162002 196.625498,15.246001 Q 196.716997,15.33 196.851997,15.33 Q 197.004995,15.33 197.078496,15.231001 Q 197.151997,15.132002 197.151997,14.945996 L 197.151997,13.952998 L 197.379995,13.952998 L 197.379995,14.960996 Q 197.379995,15.255 197.259995,15.396001 Q 197.139995,15.537002 196.941997,15.537002 Q 196.773999,15.537002 196.671997,15.465 Q 196.569995,15.392998 196.521997,15.248994 L 196.491997,15.248994 Q 196.441001,15.395996 196.340498,15.466499 Q 196.239995,15.537002 196.096001,15.537002 Q 195.936997,15.537002 195.849995,15.465 Q 195.762993,15.392998 195.717993,15.248994 L 195.687993,15.248994 L 195.687993,15.500996 L 195.459995,15.500996 L 195.459995,13.952998" />
      <path d="M 244.334487,14.46 L 244.334487,14.207998 L 244.562495,14.207998 L 244.562495,16.427998 L 244.334487,16.427998 L 244.334487,15.503994 L 244.304487,15.503994 Q 244.259487,15.657002 244.158989,15.724502 Q 244.058491,15.792002 243.914487,15.792002 Q 243.776489,15.792002 243.671489,15.735 Q 243.566489,15.677998 243.494492,15.572998 Q 243.422495,15.467998 243.386494,15.317998 Q 243.350493,15.167998 243.350493,14.982002 Q 243.350493,14.795996 243.386494,14.645996 Q 243.422495,14.495996 243.494492,14.390996 Q 243.566489,14.285996 243.671489,14.228999 Q 243.776489,14.172002 243.914487,14.172002 Q 244.058491,14.172002 244.158989,14.239502 Q 244.259487,14.307002 244.304487,14.46 L 244.334487,14.46 M 244.11999,14.396997 Q 244.055493,14.375996 243.983491,14.375996 Q 243.794487,14.375996 243.695488,14.494497 Q 243.596489,14.612998 243.596489,14.825996 L 243.596489,15.137998 Q 243.596489,15.350996 243.695488,15.469497 Q 243.794487,15.587998 243.983491,15.587998 Q 244.055493,15.587998 244.11999,15.566997 Q 244.184487,15.545996 244.230991,15.506997 Q 244.277495,15.467998 244.305991,15.413999 Q 244.334487,15.36 244.334487,15.293994 L 244.334487,14.67 Q 244.334487,14.603994 244.305991,14.549995 Q 244.277495,14.495996 244.230991,14.456997 Q 244.184487,14.417998 244.11999,14.396997" />
      <path d="M 245.018491,14.207998 L 245.246489,14.207998 L 245.246489,15.237002 Q 245.246489,15.380996 245.337993,15.452998 Q 245.429497,15.525 245.591489,15.525 L 245.741489,15.525 L 245.741489,15.755996 L 245.657495,15.755996 Q 245.504497,15.755996 245.409995,15.679497 Q 245.315493,15.602998 245.276489,15.467998 L 245.246489,15.467998 L 245.246489,15.755996 L 245.018491,15.755996 L 245.018491,14.207998" />
      <path d="M 246.992485,14.207998 L 247.154487,14.207998 L 247.154487,14.408994 L 246.998491,14.408994 L 246.998491,15.285 Q 246.998491,15.533994 246.861992,15.661494 Q 246.725493,15.788994 246.461489,15.788994 Q 246.281489,15.788994 246.149487,15.703496 Q 246.017485,15.617998 245.957485,15.492002 L 246.092485,15.365996 Q 246.152485,15.477002 246.234985,15.535498 Q 246.317485,15.593994 246.452485,15.593994 Q 246.617485,15.593994 246.693989,15.512998 Q 246.770493,15.432002 246.770493,15.260996 L 246.770493,15.09 L 246.491489,15.09 Q 246.188491,15.09 246.045991,14.963999 Q 245.903491,14.837998 245.903491,14.622002 Q 245.903491,14.4 246.014492,14.286001 Q 246.125493,14.172002 246.350493,14.172002 Q 246.494487,14.172002 246.597988,14.245498 Q 246.701489,14.318994 246.740493,14.46 L 246.770493,14.46 L 246.770493,14.43 Q 246.770493,14.207998 246.992485,14.207998 M 246.552993,14.396997 Q 246.485493,14.37 246.407485,14.37 Q 246.284487,14.37 246.21249,14.425498 Q 246.140493,14.480996 246.140493,14.597998 L 246.140493,14.682002 Q 246.140493,14.795996 246.222993,14.855996 Q 246.305493,14.915996 246.485493,14.915996 L 246.770493,14.915996 L 246.770493,14.682002 Q 246.770493,14.622002 246.743491,14.566499 Q 246.716489,14.510996 246.668491,14.467495 Q 246.620493,14.423994 246.552993,14.396997" />
      <path d="M 247.538491,15.555 L 247.538491,14.207998 L 247.766489,14.207998 L 247.766489,15.555 L 248.063491,15.555 L 248.063491,15.755996 L 247.766489,15.755996 L 247.766489,16.227002 L 248.063491,16.227002 L 248.063491,16.427998 L 247.832495,16.427998 Q 247.679497,16.427998 247.608994,16.3575 Q 247.538491,16.287002 247.538491,16.133994 L 247.538491,15.755996 L 247.313491,15.755996 L 247.313491,15.555 L 247.538491,15.555" />
      <path d="M 248.657495,14.207998 L 248.936499,14.207998 L 248.936499,14.408994 L 248.651499,14.408994 L 248.651499,15.555 L 248.951499,15.555 L 248.951499,15.755996 L 248.651499,15.755996 L 248.651499,16.182002 L 248.444497,16.182002 L 248.444497,15.893994 Q 248.444497,15.825 248.421997,15.790498 Q 248.399497,15.755996 248.330493,15.755996 L 248.195493,15.755996 L 248.195493,15.555 L 248.423491,15.555 L 248.423491,14.442002 Q 248.423491,14.318994 248.478994,14.263496 Q 248.534497,14.207998 248.657495,14.207998" />
      <path d="M 249.152495,15.755996 L 249.524497,14.207998 L 249.812495,14.207998 L 250.001499,14.957998 L 250.112495,15.525 L 250.142495,15.525 L 250.247495,14.957998 L 250.436499,14.207998 L 250.724497,14.207998 L 251.096499,15.755996 L 250.880503,15.755996 L 250.730503,15.083994 L 250.598501,14.408994 L 250.568501,14.408994 L 250.415503,15.083994 L 250.259497,15.755996 L 249.995503,15.755996 L 249.839497,15.083994 L 249.686499,14.408994 L 249.656499,14.408994 L 249.524497,15.083994 L 249.374497,15.755996 L 249.152495,15.755996" />
      <path d="M 251.393501,14.207998 L 251.621499,14.207998 L 251.621499,15.237002 Q 251.621499,15.380996 251.713003,15.452998 Q 251.804507,15.525 251.966499,15.525 L 252.116499,15.525 L 252.116499,15.755996 L 252.032505,15.755996 Q 251.879507,15.755996 251.785005,15.679497 Q 251.690503,15.602998 251.651499,15.467998 L 251.621499,15.467998 L 251.621499,15.755996 L 251.393501,15.755996 L 251.393501,14.207998" />
      <path d="M 252.389497,15.755996 L 252.389497,14.207998 L 252.617495,14.207998 L 252.617495,15.755996 L 252.389497,15.755996" />
      <path d="M 252.362495,16.253994 Q 252.362495,16.130996 252.503501,16.130996 Q 252.644497,16.130996 252.644497,16.253994 L 252.644497,16.302002 Q 252.644497,16.425 252.503501,16.425 Q 252.362495,16.425 252.362495,16.302002 L 252.362495,16.253994" />
      <path d="M 254.089004,13.68 Q 254.255503,13.787998 254.255503,14.033994 Q 254.255503,14.232002 254.141504,14.337002 Q 254.027505,14.442002 253.766499,14.442002 L 253.427505,14.442002 Q 253.331499,14.442002 253.289502,14.472002 Q 253.247505,14.502002 253.247505,14.562002 Q 253.247505,14.615996 253.291006,14.668496 Q 253.334507,14.720996 253.418501,14.735996 Q 253.493501,14.720996 253.565503,14.720996 Q 253.808501,14.720996 253.9525,14.855996 Q 254.096499,14.990996 254.096499,15.255 Q 254.096499,15.398994 254.053003,15.500996 Q 254.009507,15.602998 253.931499,15.672002 L 253.931499,15.755996 L 254.198501,15.755996 L 254.198501,15.957002 L 253.991499,15.957002 Q 253.904507,15.957002 253.865503,15.917998 Q 253.826499,15.878994 253.826499,15.792002 L 253.826499,15.737998 Q 253.709507,15.788994 253.565503,15.788994 Q 253.322505,15.788994 253.178506,15.653994 Q 253.034507,15.518994 253.034507,15.255 Q 253.034507,15.075 253.102007,14.956499 Q 253.169507,14.837998 253.289507,14.777998 L 253.289507,14.745 Q 253.163501,14.73 253.108003,14.661001 Q 253.052505,14.592002 253.052505,14.495996 Q 253.052505,14.423994 253.087002,14.371494 Q 253.121499,14.318994 253.181499,14.285996 L 253.181499,14.243994 Q 253.082505,14.225996 253.019502,14.153999 Q 252.956499,14.082002 252.956499,13.955996 Q 252.956499,13.77 253.098999,13.671001 Q 253.241499,13.572002 253.574507,13.572002 Q 253.922505,13.572002 254.089004,13.68 M 253.979502,14.173496 Q 254.042505,14.120996 254.042505,14.018994 Q 254.042505,13.883994 253.948003,13.822495 Q 253.853501,13.760996 253.667505,13.760996 L 253.469507,13.760996 Q 253.310503,13.760996 253.238501,13.828496 Q 253.166499,13.895996 253.166499,14.012998 Q 253.166499,14.090996 253.195,14.141997 Q 253.223501,14.192998 253.292505,14.225996 L 253.763501,14.225996 Q 253.916499,14.225996 253.979502,14.173496 M 253.784502,14.978999 Q 253.706499,14.907002 253.565503,14.907002 Q 253.424507,14.907002 253.346504,14.978999 Q 253.268501,15.050996 253.268501,15.200996 L 253.268501,15.312002 Q 253.268501,15.462002 253.346504,15.533999 Q 253.424507,15.605996 253.565503,15.605996 Q 253.706499,15.605996 253.784502,15.533999 Q 253.862505,15.462002 253.862505,15.312002 L 253.862505,15.200996 Q 253.862505,15.050996 253.784502,14.978999" />
      <path d="M 254.504497,16.427998 L 254.504497,14.207998 L 254.732495,14.207998 L 254.732495,15.263994 Q 254.732495,15.417002 254.828496,15.501001 Q 254.924497,15.585 255.062495,15.585 Q 255.221499,15.585 255.297998,15.486001 Q 255.374497,15.387002 255.374497,15.200996 L 255.374497,14.207998 L 255.602495,14.207998 L 255.602495,15.215996 Q 255.602495,15.51 255.483999,15.651001 Q 255.365503,15.792002 255.158501,15.792002 Q 254.996499,15.792002 254.901997,15.72 Q 254.807495,15.647998 254.762495,15.503994 L 254.732495,15.503994 L 254.732495,16.427998 L 254.504497,16.427998" />
      <path d="M 256.355503,14.207998 L 256.634507,14.207998 L 256.634507,14.408994 L 256.349507,14.408994 L 256.349507,15.555 L 256.649507,15.555 L 256.649507,15.755996 L 256.349507,15.755996 L 256.349507,16.182002 L 256.142505,16.182002 L 256.142505,15.893994 Q 256.142505,15.825 256.120005,15.790498 Q 256.097505,15.755996 256.028501,15.755996 L 255.893501,15.755996 L 255.893501,15.555 L 256.121499,15.555 L 256.121499,14.442002 Q 256.121499,14.318994 256.177002,14.263496 Q 256.232505,14.207998 256.355503,14.207998" />
      <path d="M 167.215503,20.742002 L 167.511001,20.742002 L 167.511001,20.847002 L 166.8,20.847002 L 166.8,20.742002 L 167.095503,20.742002 L 167.095503,19.8 L 167.215503,19.8 L 167.215503,20.742002" />
      <path d="M 167.622002,19.8 L 168.006001,19.8 L 168.006001,19.898999 L 167.873999,19.898999 L 167.873999,20.747998 L 168.006001,20.747998 L 168.006001,20.847002 L 167.622002,20.847002 L 167.622002,20.747998 L 167.753999,20.747998 L 167.753999,19.898999 L 167.622002,19.898999 L 167.622002,19.8" />
      <path d="M 168.5325,20.742002 L 168.827998,20.742002 L 168.827998,20.847002 L 168.116997,20.847002 L 168.116997,20.742002 L 168.4125,20.742002 L 168.4125,19.8 L 168.5325,19.8 L 168.5325,20.742002" />
      <path d="M 168.983999,19.8 L 169.501499,19.8 L 169.501499,19.905 L 169.103999,19.905 L 169.103999,20.847002 L 168.983999,20.847002 L 168.983999,19.8" />
      <path d="M 169.663501,19.8 L 170.2425,19.8 L 170.2425,19.905 L 169.783501,19.905 L 169.783501,20.277002 L 170.213999,20.277002 L 170.213999,20.382002 L 169.783501,20.382002 L 169.783501,20.742002 L 170.2425,20.742002 L 170.2425,20.847002 L 169.663501,20.847002 L 169.663501,19.8" />
      <path d="M 214.8,20.865 L 214.8,19.817998 L 215.128496,19.817998 Q 215.31,19.817998 215.408999,19.943247 Q 215.507998,20.068496 215.507998,20.341499 Q 215.507998,20.614497 215.408999,20.739749 Q 215.31,20.865 215.128496,20.865 L 214.8,20.865 M 215.128496,19.922998 L 214.92,19.922998 L 214.92,20.76 L 215.128496,20.76 Q 215.240996,20.76 215.309998,20.682 Q 215.378999,20.603999 215.378999,20.458496 L 215.378999,20.224497 Q 215.378999,20.078999 215.309998,20.000999 Q 215.240996,19.922998 215.128496,19.922998" />
      <path d="M 215.843994,19.817998 L 215.993994,19.817998 L 216.146997,20.494497 L 216.184497,20.76 L 216.199497,20.76 L 216.236997,20.494497 L 216.380996,19.817998 L 216.530996,19.817998 L 216.769497,20.865 L 216.647998,20.865 L 216.506997,20.188496 L 216.469497,19.937998 L 216.454497,19.937998 L 216.416997,20.188496 L 216.274497,20.865 L 216.112495,20.865 L 215.969995,20.188496 L 215.932495,19.937998 L 215.917495,19.937998 L 215.879995,20.188496 L 215.738994,20.865 L 215.614497,20.865 L 215.843994,19.817998" />
      <path d="M 217.531499,19.963496 L 217.531499,19.817998 L 217.6425,19.817998 L 217.6425,20.353496 L 217.318496,20.353496 L 217.318496,20.248496 L 217.525498,20.248496 L 217.525498,20.134497 Q 217.525498,20.080498 217.505999,20.037749 Q 217.486499,19.995 217.452749,19.96575 Q 217.418999,19.936499 217.37325,19.921499 Q 217.3275,19.906499 217.276499,19.906499 Q 217.145996,19.906499 217.075498,19.992749 Q 217.005,20.078999 217.005,20.224497 L 217.005,20.458496 Q 217.005,20.603999 217.075498,20.690249 Q 217.145996,20.776499 217.276499,20.776499 Q 217.373999,20.776499 217.435498,20.729998 Q 217.496997,20.683496 217.526997,20.600996 L 217.625996,20.660996 Q 217.579497,20.764497 217.496997,20.823748 Q 217.414497,20.882998 217.276499,20.882998 Q 217.085996,20.882998 216.980996,20.752498 Q 216.875996,20.621997 216.875996,20.341499 Q 216.875996,20.201997 216.903748,20.099248 Q 216.931499,19.996499 216.980999,19.930498 Q 217.030498,19.864497 217.100999,19.832249 Q 217.171499,19.8 217.256997,19.8 Q 217.3725,19.8 217.43625,19.846499 Q 217.5,19.892998 217.516499,19.963496 L 217.531499,19.963496" />
      <path d="M 218.393994,20.4975 L 218.741992,19.817998 L 218.888994,19.817998 L 218.888994,20.865 L 218.771992,20.865 L 218.771992,20.185498 L 218.782495,19.969497 L 218.767495,19.969497 L 218.675996,20.185498 L 218.327993,20.865 L 218.180996,20.865 L 218.180996,19.817998 L 218.297993,19.817998 L 218.297993,20.4975 L 218.287495,20.713496 L 218.302495,20.713496 L 218.393994,20.4975" />
      <path d="M 219.19499,19.930498 Q 219.29999,19.8 219.490493,19.8 Q 219.680991,19.8 219.785991,19.930498 Q 219.890991,20.060996 219.890991,20.341499 Q 219.890991,20.621997 219.785991,20.752498 Q 219.680991,20.882998 219.490493,20.882998 Q 219.29999,20.882998 219.19499,20.752498 Q 219.08999,20.621997 219.08999,20.341499 Q 219.08999,20.060996 219.19499,19.930498 M 219.691492,19.992749 Q 219.620991,19.906499 219.490493,19.906499 Q 219.35999,19.906499 219.289492,19.992749 Q 219.218994,20.078999 219.218994,20.224497 L 219.218994,20.458496 Q 219.218994,20.603999 219.289492,20.690249 Q 219.35999,20.776499 219.490493,20.776499 Q 219.620991,20.776499 219.691492,20.690249 Q 219.761992,20.603999 219.761992,20.458496 L 219.761992,20.224497 Q 219.761992,20.078999 219.691492,19.992749" />
      <path d="M 220.066494,19.876499 Q 220.066494,19.8 220.154995,19.8 Q 220.243496,19.8 220.243496,19.876499 L 220.243496,19.900498 Q 220.243496,19.976997 220.154995,19.976997 Q 220.066494,19.976997 220.066494,19.900498 L 220.066494,19.876499" />
      <path d="M 238.939502,19.847249 Q 239.023501,19.8 239.136001,19.8 Q 239.290503,19.8 239.378252,19.877249 Q 239.466001,19.954497 239.466001,20.102998 Q 239.466001,20.1675 239.451751,20.21625 Q 239.4375,20.265 239.405252,20.300999 Q 239.373003,20.336997 239.322002,20.361748 Q 239.271001,20.386499 239.1975,20.404497 L 239.119502,20.423999 Q 239.028003,20.446499 238.986753,20.485498 Q 238.945503,20.524497 238.945503,20.600996 Q 238.945503,20.695498 238.995752,20.737498 Q 239.046001,20.779497 239.142002,20.779497 Q 239.2275,20.779497 239.279251,20.747249 Q 239.331001,20.715 239.371504,20.651997 L 239.46,20.715 Q 239.404502,20.801997 239.330252,20.842498 Q 239.256001,20.882998 239.146504,20.882998 Q 239.0025,20.882998 238.915501,20.811748 Q 238.828501,20.740498 238.828501,20.600996 Q 238.828501,20.479497 238.893753,20.412747 Q 238.959004,20.345996 239.097002,20.311499 L 239.175,20.291997 Q 239.271001,20.267998 239.310003,20.225999 Q 239.349004,20.183999 239.349004,20.102998 Q 239.349004,19.903496 239.136001,19.903496 Q 239.055,19.903496 238.995,19.941748 Q 238.935,19.98 238.887002,20.050498 L 238.8,19.978496 Q 238.855503,19.894497 238.939502,19.847249" />
      <path d="M 239.830501,19.832249 Q 239.901001,19.8 239.989502,19.8 Q 240.118501,19.8 240.200252,19.859248 Q 240.282002,19.918496 240.327002,20.030996 L 240.231001,20.090996 Q 240.2025,20.000996 240.147002,19.953748 Q 240.091504,19.906499 239.989502,19.906499 Q 239.869502,19.906499 239.804253,19.992749 Q 239.739004,20.078999 239.739004,20.224497 L 239.739004,20.458496 Q 239.739004,20.603999 239.804253,20.690249 Q 239.869502,20.776499 239.989502,20.776499 Q 240.088501,20.776499 240.141751,20.732249 Q 240.195,20.687998 240.223501,20.6025 L 240.319502,20.660996 Q 240.274502,20.773496 240.196502,20.828247 Q 240.118501,20.882998 239.989502,20.882998 Q 239.901001,20.882998 239.830501,20.850747 Q 239.76,20.818496 239.71125,20.752498 Q 239.6625,20.686499 239.63625,20.583748 Q 239.61,20.480996 239.61,20.341499 Q 239.61,20.201997 239.63625,20.099248 Q 239.6625,19.996499 239.71125,19.930498 Q 239.76,19.864497 239.830501,19.832249" />
      <path d="M 241.0875,19.817998 L 241.210503,19.817998 L 240.882002,20.865 L 240.732002,20.865 L 240.405,19.817998 L 240.525,19.817998 L 240.618003,20.131499 L 240.994502,20.131499 L 241.0875,19.817998 M 240.846001,20.627998 L 240.9675,20.230498 L 240.646499,20.230498 L 240.765,20.627998 L 240.798003,20.758496 L 240.813003,20.758496 L 240.846001,20.627998" />
      <path d="M 241.366504,19.817998 L 241.884004,19.817998 L 241.884004,19.922998 L 241.486504,19.922998 L 241.486504,20.865 L 241.366504,20.865 L 241.366504,19.817998" />
      <path d="M 242.046006,19.817998 L 242.625005,19.817998 L 242.625005,19.922998 L 242.166006,19.922998 L 242.166006,20.295 L 242.596504,20.295 L 242.596504,20.4 L 242.166006,20.4 L 242.166006,20.76 L 242.625005,20.76 L 242.625005,20.865 L 242.046006,20.865 L 242.046006,19.817998" />
      <path d="M 257.532002,20.536499 L 257.532002,19.817998 L 257.649004,19.817998 L 257.649004,20.865 L 257.49,20.865 L 257.301001,20.458496 L 257.230503,20.265 L 257.218501,20.265 L 257.148003,20.458496 L 256.959004,20.865 L 256.8,20.865 L 256.8,19.817998 L 256.917002,19.817998 L 256.917002,20.536499 L 256.906504,20.713496 L 256.921504,20.713496 L 256.999502,20.536499 L 257.224502,20.074497 L 257.449502,20.536499 L 257.5275,20.716499 L 257.5425,20.716499 L 257.532002,20.536499" />
      <path d="M 258.486001,19.817998 L 258.609004,19.817998 L 258.280503,20.865 L 258.130503,20.865 L 257.803501,19.817998 L 257.923501,19.817998 L 258.016504,20.131499 L 258.393003,20.131499 L 258.486001,19.817998 M 258.244502,20.627998 L 258.366001,20.230498 L 258.045,20.230498 L 258.163501,20.627998 L 258.196504,20.758496 L 258.211504,20.758496 L 258.244502,20.627998" />
      <path d="M 259.087505,20.76 L 259.383003,20.76 L 259.383003,20.865 L 258.672002,20.865 L 258.672002,20.76 L 258.967505,20.76 L 258.967505,19.817998 L 259.087505,19.817998 L 259.087505,20.76" />
      <path d="M 259.512002,19.876499 Q 259.512002,19.8 259.600503,19.8 Q 259.689004,19.8 259.689004,19.876499 L 259.689004,19.900498 Q 259.689004,19.976997 259.600503,19.976997 Q 259.512002,19.976997 259.512002,19.900498 L 259.512002,19.876499" />
      <path d="M 274.92,19.8 L 274.92,20.25 L 275.138999,20.25 L 275.335498,19.8 L 275.470498,19.8 L 275.258999,20.2575 Q 275.445,20.296499 275.445,20.548501 Q 275.445,20.847002 275.185498,20.847002 L 274.8,20.847002 L 274.8,19.8 L 274.92,19.8 M 275.1825,20.352002 L 274.92,20.352002 L 274.92,20.742002 L 275.1825,20.742002 Q 275.315996,20.742002 275.315996,20.597998 L 275.315996,20.496001 Q 275.315996,20.352002 275.1825,20.352002" />
      <path d="M 275.667002,19.8 L 276.246001,19.8 L 276.246001,19.905 L 275.787002,19.905 L 275.787002,20.277002 L 276.2175,20.277002 L 276.2175,20.382002 L 275.787002,20.382002 L 275.787002,20.742002 L 276.246001,20.742002 L 276.246001,20.847002 L 275.667002,20.847002 L 275.667002,19.8" />
      <path d="M 276.6675,19.8 L 276.8175,19.8 L 277.126499,20.847002 L 277.003501,20.847002 L 276.803999,20.170498 L 276.751499,19.905 L 276.736499,19.905 L 276.683999,20.170498 L 276.486001,20.847002 L 276.36,20.847002 L 276.6675,19.8" />
      <path d="M 167.455503,11.963496 L 167.455503,11.817998 L 167.566504,11.817998 L 167.566504,12.353496 L 167.2425,12.353496 L 167.2425,12.248496 L 167.449502,12.248496 L 167.449502,12.134497 Q 167.449502,12.080498 167.430003,12.037749 Q 167.410503,11.995 167.376753,11.96575 Q 167.343003,11.936499 167.297254,11.921499 Q 167.251504,11.906499 167.200503,11.906499 Q 167.07,11.906499 166.999502,11.992749 Q 166.929004,12.078999 166.929004,12.224497 L 166.929004,12.458496 Q 166.929004,12.603999 166.999502,12.690249 Q 167.07,12.776499 167.200503,12.776499 Q 167.298003,12.776499 167.359502,12.729998 Q 167.421001,12.683496 167.451001,12.600996 L 167.55,12.660996 Q 167.503501,12.764497 167.421001,12.823748 Q 167.338501,12.882998 167.200503,12.882998 Q 167.01,12.882998 166.905,12.752498 Q 166.8,12.621997 166.8,12.341499 Q 166.8,12.201997 166.827752,12.099248 Q 166.855503,11.996499 166.905003,11.930498 Q 166.954502,11.864497 167.025003,11.832249 Q 167.095503,11.8 167.181001,11.8 Q 167.296504,11.8 167.360254,11.846499 Q 167.424004,11.892998 167.440503,11.963496 L 167.455503,11.963496" />
      <path d="M 167.787002,11.817998 L 168.366001,11.817998 L 168.366001,11.922998 L 167.907002,11.922998 L 167.907002,12.295 L 168.3375,12.295 L 168.3375,12.4 L 167.907002,12.4 L 167.907002,12.76 L 168.366001,12.76 L 168.366001,12.865 L 167.787002,12.865 L 167.787002,11.817998" />
      <path d="M 168.788999,12.4975 L 169.136997,11.817998 L 169.283999,11.817998 L 169.283999,12.865 L 169.166997,12.865 L 169.166997,12.185498 L 169.1775,11.969497 L 169.1625,11.969497 L 169.071001,12.185498 L 168.722998,12.865 L 168.576001,12.865 L 168.576001,11.817998 L 168.692998,11.817998 L 168.692998,12.4975 L 168.6825,12.713496 L 168.6975,12.713496 L 168.788999,12.4975" />
      <path d="M 169.504497,11.876499 Q 169.504497,11.8 169.592998,11.8 Q 169.681499,11.8 169.681499,11.876499 L 169.681499,11.900498 Q 169.681499,11.976997 169.592998,11.976997 Q 169.504497,11.976997 169.504497,11.900498 L 169.504497,11.876499" />
      <path d="M 170.543999,12.76 L 170.839497,12.76 L 170.839497,12.865 L 170.128496,12.865 L 170.128496,12.76 L 170.423999,12.76 L 170.423999,11.817998 L 170.543999,11.817998 L 170.543999,12.76" />
      <path d="M 171.053994,11.930498 Q 171.158994,11.8 171.349497,11.8 Q 171.539995,11.8 171.644995,11.930498 Q 171.749995,12.060996 171.749995,12.341499 Q 171.749995,12.621997 171.644995,12.752498 Q 171.539995,12.882998 171.349497,12.882998 Q 171.158994,12.882998 171.053994,12.752498 Q 170.948994,12.621997 170.948994,12.341499 Q 170.948994,12.060996 171.053994,11.930498 M 171.550496,11.992749 Q 171.479995,11.906499 171.349497,11.906499 Q 171.218994,11.906499 171.148496,11.992749 Q 171.077998,12.078999 171.077998,12.224497 L 171.077998,12.458496 Q 171.077998,12.603999 171.148496,12.690249 Q 171.218994,12.776499 171.349497,12.776499 Q 171.479995,12.776499 171.550496,12.690249 Q 171.620996,12.603999 171.620996,12.458496 L 171.620996,12.224497 Q 171.620996,12.078999 171.550496,11.992749" />
      <path d="M 171.9525,11.817998 L 172.47,11.817998 L 172.47,11.922998 L 172.0725,11.922998 L 172.0725,12.865 L 171.9525,12.865 L 171.9525,11.817998" />
      <path d="M 172.605,11.876499 Q 172.605,11.8 172.693501,11.8 Q 172.782002,11.8 172.782002,11.876499 L 172.782002,11.900498 Q 172.782002,11.976997 172.693501,11.976997 Q 172.605,11.976997 172.605,11.900498 L 172.605,11.876499" />
      <path d="M 214.8,12.847002 L 214.8,11.8 L 215.128496,11.8 Q 215.31,11.8 215.408999,11.925249 Q 215.507998,12.050498 215.507998,12.323501 Q 215.507998,12.596499 215.408999,12.721751 Q 215.31,12.847002 215.128496,12.847002 L 214.8,12.847002 M 215.128496,11.905 L 214.92,11.905 L 214.92,12.742002 L 215.128496,12.742002 Q 215.240996,12.742002 215.309998,12.664002 Q 215.378999,12.586001 215.378999,12.440498 L 215.378999,12.206499 Q 215.378999,12.061001 215.309998,11.983001 Q 215.240996,11.905 215.128496,11.905" />
      <path d="M 215.830498,11.8 L 215.830498,12.25 L 216.049497,12.25 L 216.245996,11.8 L 216.380996,11.8 L 216.169497,12.2575 Q 216.355498,12.296499 216.355498,12.548501 Q 216.355498,12.847002 216.095996,12.847002 L 215.710498,12.847002 L 215.710498,11.8 L 215.830498,11.8 M 216.092998,12.352002 L 215.830498,12.352002 L 215.830498,12.742002 L 216.092998,12.742002 Q 216.226494,12.742002 216.226494,12.597998 L 216.226494,12.496001 Q 216.226494,12.352002 216.092998,12.352002" />
      <path d="M 217.166997,11.8 L 217.29,11.8 L 216.961499,12.847002 L 216.811499,12.847002 L 216.484497,11.8 L 216.604497,11.8 L 216.6975,12.113501 L 217.073999,12.113501 L 217.166997,11.8 M 216.925498,12.61 L 217.046997,12.2125 L 216.725996,12.2125 L 216.844497,12.61 L 216.8775,12.740498 L 216.8925,12.740498 L 216.925498,12.61" />
      <path d="M 217.579497,11.8 L 217.729497,11.8 L 217.8825,12.476499 L 217.92,12.742002 L 217.935,12.742002 L 217.9725,12.476499 L 218.116499,11.8 L 218.266499,11.8 L 218.505,12.847002 L 218.383501,12.847002 L 218.2425,12.170498 L 218.205,11.92 L 218.19,11.92 L 218.1525,12.170498 L 218.01,12.847002 L 217.847998,12.847002 L 217.705498,12.170498 L 217.667998,11.92 L 217.652998,11.92 L 217.615498,12.170498 L 217.474497,12.847002 L 217.35,12.847002 L 217.579497,11.8" />
      <path d="M 218.871001,12.479502 L 219.218999,11.8 L 219.366001,11.8 L 219.366001,12.847002 L 219.248999,12.847002 L 219.248999,12.1675 L 219.259502,11.951499 L 219.244502,11.951499 L 219.153003,12.1675 L 218.805,12.847002 L 218.658003,12.847002 L 218.658003,11.8 L 218.775,11.8 L 218.775,12.479502 L 218.764502,12.695498 L 218.779502,12.695498 L 218.871001,12.479502" />
      <path d="M 219.931499,12.847002 L 219.931499,11.8 L 220.367998,11.8 Q 220.474497,11.8 220.540498,11.8795 Q 220.606499,11.958999 220.606499,12.102998 Q 220.606499,12.172002 220.586248,12.217752 Q 220.565996,12.263501 220.536746,12.29125 Q 220.507495,12.318999 220.473745,12.330249 Q 220.439995,12.341499 220.412998,12.341499 L 220.412998,12.356499 Q 220.439995,12.357998 220.468496,12.37 Q 220.496997,12.382002 220.520247,12.406751 Q 220.543496,12.431499 220.558496,12.472749 Q 220.573496,12.513999 220.573496,12.577002 Q 220.573496,12.713501 220.509746,12.780252 Q 220.445996,12.847002 220.327495,12.847002 L 219.931499,12.847002 M 220.051499,11.905 L 220.051499,12.288999 L 220.331997,12.288999 Q 220.403999,12.288999 220.440747,12.25075 Q 220.477495,12.2125 220.477495,12.131499 L 220.477495,12.0625 Q 220.477495,11.981499 220.440747,11.94325 Q 220.403999,11.905 220.331997,11.905 L 220.051499,11.905 M 220.051499,12.393999 L 220.051499,12.742002 L 220.312495,12.742002 Q 220.376997,12.742002 220.411497,12.708252 Q 220.445996,12.674502 220.445996,12.6025 L 220.445996,12.533501 Q 220.445996,12.461499 220.411497,12.427749 Q 220.376997,12.393999 220.312495,12.393999 L 220.051499,12.393999" />
      <path d="M 221.030996,11.8 L 221.150996,11.8 L 221.150996,12.213999 L 221.475,12.847002 L 221.341499,12.847002 L 221.1,12.348999 L 221.085,12.348999 L 220.843496,12.847002 L 220.706997,12.847002 L 221.030996,12.213999 L 221.030996,11.8" />
      <path d="M 196.333501,98.069875 L 197.629497,98.069875 L 197.629497,98.270871 L 197.107495,98.270871 L 197.107495,99.962873 L 197.629497,99.962873 L 197.629497,100.163879 L 196.333501,100.163879 L 196.333501,99.962873 L 196.855503,99.962873 L 196.855503,98.270871 L 196.333501,98.270871 L 196.333501,98.069875" />
      <path d="M 198.313501,98.137375 Q 198.493501,98.033879 198.775503,98.033879 Q 199.126499,98.033879 199.316997,98.198879 Q 199.507495,98.363879 199.507495,98.654875 Q 199.507495,98.756877 199.480498,98.849875 Q 199.453501,98.942873 199.388999,99.017873 Q 199.324497,99.092873 199.219497,99.146872 Q 199.114497,99.200871 198.961499,99.227873 L 198.736499,99.266877 Q 198.514497,99.305871 198.428999,99.394372 Q 198.343501,99.482873 198.343501,99.623879 Q 198.343501,99.803879 198.4575,99.893879 Q 198.571499,99.983879 198.784497,99.983879 Q 198.979497,99.983879 199.1025,99.911877 Q 199.225503,99.839875 199.312495,99.725871 L 199.489497,99.878879 Q 199.384497,100.031877 199.211997,100.115876 Q 199.039497,100.199875 198.787495,100.199875 Q 198.466499,100.199875 198.2775,100.052873 Q 198.088501,99.905871 198.088501,99.617873 Q 198.088501,99.518879 198.115498,99.427375 Q 198.142495,99.335871 198.205498,99.259372 Q 198.268501,99.182873 198.372002,99.128874 Q 198.475503,99.074875 198.628501,99.047873 L 198.862495,99.008879 Q 199.078501,98.972873 199.165498,98.887375 Q 199.252495,98.801877 199.252495,98.648879 Q 199.252495,98.459875 199.132495,98.354875 Q 199.012495,98.249875 198.784497,98.249875 Q 198.595503,98.249875 198.458999,98.324875 Q 198.322495,98.399875 198.199497,98.552873 L 198.016499,98.402873 Q 198.133501,98.240871 198.313501,98.137375" />
      <path d="M 200.251499,98.107375 Q 200.389497,98.033879 200.581499,98.033879 Q 200.773501,98.033879 200.911499,98.107375 Q 201.049497,98.180871 201.139497,98.318874 Q 201.229497,98.456877 201.271499,98.657878 Q 201.313501,98.858879 201.313501,99.116877 Q 201.313501,99.371877 201.271499,99.574377 Q 201.229497,99.776877 201.139497,99.914875 Q 201.049497,100.052873 200.911499,100.126374 Q 200.773501,100.199875 200.581499,100.199875 Q 200.389497,100.199875 200.251499,100.126374 Q 200.113501,100.052873 200.023501,99.914875 Q 199.933501,99.776877 199.891499,99.574377 Q 199.849497,99.371877 199.849497,99.116877 Q 199.849497,98.858879 199.891499,98.657878 Q 199.933501,98.456877 200.023501,98.318874 Q 200.113501,98.180871 200.251499,98.107375 M 200.794497,98.302375 Q 200.707495,98.252873 200.581499,98.252873 Q 200.455503,98.252873 200.368501,98.302375 Q 200.281499,98.351877 200.224497,98.441877 Q 200.167495,98.531877 200.141997,98.659377 Q 200.116499,98.786877 200.116499,98.945871 L 200.116499,99.287873 Q 200.116499,99.443879 200.141997,99.572878 Q 200.167495,99.701877 200.224497,99.791877 Q 200.281499,99.881877 200.368501,99.931374 Q 200.455503,99.980871 200.581499,99.980871 Q 200.707495,99.980871 200.794497,99.931374 Q 200.881499,99.881877 200.938501,99.791877 Q 200.995503,99.701877 201.021001,99.572878 Q 201.046499,99.443879 201.046499,99.287873 L 201.046499,98.945871 Q 201.046499,98.786877 201.021001,98.659377 Q 200.995503,98.531877 200.938501,98.441877 Q 200.881499,98.351877 200.794497,98.302375" />
      <path d="M 204.010503,98.069875 L 204.352495,98.069875 L 204.973501,100.163879 L 204.715503,100.163879 L 204.418501,99.116877 L 204.193501,98.324875 L 204.178501,98.324875 L 203.953501,99.116877 L 203.656499,100.163879 L 203.389497,100.163879 L 204.010503,98.069875" />
      <path d="M 205.333501,98.069875 L 206.629497,98.069875 L 206.629497,98.270871 L 206.107495,98.270871 L 206.107495,99.962873 L 206.629497,99.962873 L 206.629497,100.163879 L 205.333501,100.163879 L 205.333501,99.962873 L 205.855503,99.962873 L 205.855503,98.270871 L 205.333501,98.270871 L 205.333501,98.069875" />
      <path d="M 207.151499,98.069875 L 208.441499,98.069875 L 208.441499,98.288879 L 207.403501,98.288879 L 207.403501,99.020871 L 208.405503,99.020871 L 208.405503,99.239875 L 207.403501,99.239875 L 207.403501,99.944875 L 208.441499,99.944875 L 208.441499,100.163879 L 207.151499,100.163879 L 207.151499,98.069875" />
      <path d="M 208.951499,98.069875 L 209.314497,98.069875 L 209.569497,99.320871 L 209.593501,99.320871 L 209.848501,98.069875 L 210.211499,98.069875 L 210.376499,100.163879 L 210.157495,100.163879 L 210.070503,98.963879 L 210.025503,98.330871 L 210.001499,98.330871 L 209.725503,99.617873 L 209.443501,99.617873 L 209.167495,98.330871 L 209.143501,98.330871 L 209.098501,98.963879 L 209.011499,100.163879 L 208.786499,100.163879 L 208.951499,98.069875" />
      <path d="M 212.946001,99.424377 Q 212.896499,99.221877 212.896499,99.002873 Q 212.896499,98.783879 212.946001,98.581379 Q 212.995503,98.378879 213.081001,98.204875 Q 213.166499,98.030871 213.280498,97.889875 Q 213.394497,97.748879 213.520503,97.655871 L 213.763501,97.655871 Q 213.631499,97.754875 213.516001,97.885373 Q 213.400503,98.015871 213.312002,98.170373 Q 213.223501,98.324875 213.1725,98.503376 Q 213.121499,98.681877 213.121499,98.873879 L 213.121499,99.131877 Q 213.121499,99.323879 213.1725,99.502375 Q 213.223501,99.680871 213.312002,99.835373 Q 213.400503,99.989875 213.516001,100.120373 Q 213.631499,100.250871 213.763501,100.349875 L 213.520503,100.349875 Q 213.394497,100.253879 213.280498,100.114377 Q 213.166499,99.974875 213.081001,99.800876 Q 212.995503,99.626877 212.946001,99.424377" />
      <path d="M 214.570503,99.833879 L 215.284497,98.069875 L 215.641499,98.069875 L 215.641499,100.163879 L 215.413501,100.163879 L 215.413501,98.399875 L 215.392495,98.399875 L 214.678501,100.163879 L 214.321499,100.163879 L 214.321499,98.069875 L 214.549497,98.069875 L 214.549497,99.833879 L 214.570503,99.833879" />
      <path d="M 216.907495,99.944875 L 217.606499,99.944875 L 217.606499,100.163879 L 215.956499,100.163879 L 215.956499,99.944875 L 216.655503,99.944875 L 216.655503,98.069875 L 216.907495,98.069875 L 216.907495,99.944875" />
      <path d="M 218.113501,98.137375 Q 218.293501,98.033879 218.575503,98.033879 Q 218.926499,98.033879 219.116997,98.198879 Q 219.307495,98.363879 219.307495,98.654875 Q 219.307495,98.756877 219.280498,98.849875 Q 219.253501,98.942873 219.188999,99.017873 Q 219.124497,99.092873 219.019497,99.146872 Q 218.914497,99.200871 218.761499,99.227873 L 218.536499,99.266877 Q 218.314497,99.305871 218.228999,99.394372 Q 218.143501,99.482873 218.143501,99.623879 Q 218.143501,99.803879 218.2575,99.893879 Q 218.371499,99.983879 218.584497,99.983879 Q 218.779497,99.983879 218.9025,99.911877 Q 219.025503,99.839875 219.112495,99.725871 L 219.289497,99.878879 Q 219.184497,100.031877 219.011997,100.115876 Q 218.839497,100.199875 218.587495,100.199875 Q 218.266499,100.199875 218.0775,100.052873 Q 217.888501,99.905871 217.888501,99.617873 Q 217.888501,99.518879 217.915498,99.427375 Q 217.942495,99.335871 218.005498,99.259372 Q 218.068501,99.182873 218.172002,99.128874 Q 218.275503,99.074875 218.428501,99.047873 L 218.662495,99.008879 Q 218.878501,98.972873 218.965498,98.887375 Q 219.052495,98.801877 219.052495,98.648879 Q 219.052495,98.459875 218.932495,98.354875 Q 218.812495,98.249875 218.584497,98.249875 Q 218.395503,98.249875 218.258999,98.324875 Q 218.122495,98.399875 217.999497,98.552873 L 217.816499,98.402873 Q 217.933501,98.240871 218.113501,98.137375" />
      <path d="M 220.616997,98.581379 Q 220.666499,98.783879 220.666499,99.002873 Q 220.666499,99.221877 220.616997,99.424377 Q 220.567495,99.626877 220.481997,99.800876 Q 220.396499,99.974875 220.2825,100.114377 Q 220.168501,100.253879 220.042495,100.349875 L 219.799497,100.349875 Q 219.928501,100.250871 220.045498,100.120373 Q 220.162495,99.989875 220.250996,99.835373 Q 220.339497,99.680871 220.390498,99.502375 Q 220.441499,99.323879 220.441499,99.131877 L 220.441499,98.873879 Q 220.441499,98.681877 220.390498,98.503376 Q 220.339497,98.324875 220.250996,98.170373 Q 220.162495,98.015871 220.045498,97.885373 Q 219.928501,97.754875 219.799497,97.655871 L 220.042495,97.655871 Q 220.168501,97.748879 220.2825,97.889875 Q 220.396499,98.030871 220.481997,98.204875 Q 220.567495,98.378879 220.616997,98.581379" />
    </g>
  </g>
<a xlink:href="https://github.com/pzfreo/draftwright" href="https://github.com/pzfreo/draftwright" target="_blank"><rect x="214.000" y="-19.000" width="72.000" height="8.000" fill="transparent" pointer-events="all"/></a></svg>