<svg xmlns="http://www.w3.org/2000/svg" viewBox="0 0 545 250" width="545" height="250">
  <rect x="0" y="0" width="545" height="250" fill="#ffffff"/>
  <g fill="none" stroke="#17324a" stroke-width="5" stroke-linejoin="round" stroke-linecap="round">
    <polygon points="110,48 155,74 155,126 110,152 65,126 65,74"/><path d="M110,48 L110,100 M110,100 L155,126 M110,100 L65,126"/></g>
  <g stroke-width="1.6"><line x1="65" y1="131" x2="65" y2="196" stroke="#17324a"/><line x1="155" y1="131" x2="155" y2="196" stroke="#17324a"/><line x1="65" y1="190" x2="155" y2="190" stroke="#2b8fd6" stroke-width="1.8"/></g>
  <g fill="#2b8fd6"><polygon points="65,190 76,186 76,194"/><polygon points="155,190 144,186 144,194"/></g>
<path transform="translate(99.40,185) scale(0.01600,-0.01600)" d="M95 698H290Q418 698 481.0 610.0Q544 522 544 349Q544 176 481.0 88.0Q418 0 290 0H95ZM286 73Q370 73 412.5 131.0Q455 189 455 295V403Q455 509 412.5 567.0Q370 625 286 625H179V73Z" fill="#2b8fd6"/>
<path transform="translate(110.00,185) scale(0.01600,-0.01600)" d="M90 0 35 698H110L139 298L154 87H162L254 516H348L440 87H448L463 298L492 698H565L510 0H389L304 417H296L211 0Z" fill="#2b8fd6"/>
<path transform="translate(196.00,133) scale(0.06400,-0.06400)" d="M372 84H362Q347 33 313.5 10.5Q280 -12 232 -12Q186 -12 151.0 7.0Q116 26 92.0 61.0Q68 96 56.0 146.0Q44 196 44 258Q44 320 56.0 370.0Q68 420 92.0 455.0Q116 490 151.0 509.0Q186 528 232 528Q280 528 313.5 505.5Q347 483 362 432H372V740H448V0H372ZM255 56Q279 56 300.5 63.0Q322 70 337.5 83.0Q353 96 362.5 114.0Q372 132 372 154V362Q372 384 362.5 402.0Q353 420 337.5 433.0Q322 446 300.5 453.0Q279 460 255 460Q192 460 159.0 420.5Q126 381 126 310V206Q126 135 159.0 95.5Q192 56 255 56Z" fill="#17324a" stroke="#17324a" stroke-width="20" stroke-linejoin="round"/>
<path transform="translate(229.54,133) scale(0.06400,-0.06400)" d="M76 0V516H152V420H162Q175 465 206.5 490.5Q238 516 289 516H317V439H267Q213 439 182.5 415.0Q152 391 152 343V0Z" fill="#17324a" stroke="#17324a" stroke-width="20" stroke-linejoin="round"/>
<path transform="translate(250.78,133) scale(0.06400,-0.06400)" d="M402 0Q328 0 328 74V84H318Q305 37 270.5 12.5Q236 -12 188 -12Q113 -12 76.0 26.0Q39 64 39 138Q39 210 86.5 252.0Q134 294 235 294H328V351Q328 408 302.5 435.0Q277 462 222 462Q177 462 149.5 442.5Q122 423 102 386L57 428Q77 470 121.0 498.5Q165 527 225 527Q313 527 358.5 484.5Q404 442 404 359V67H456V0ZM207 54Q233 54 255.5 63.0Q278 72 294.0 86.5Q310 101 319.0 119.5Q328 138 328 158V236H233Q173 236 145.5 216.0Q118 196 118 158V130Q118 91 142.0 72.5Q166 54 207 54Z" fill="#17324a" stroke="#17324a" stroke-width="20" stroke-linejoin="round"/>
<path transform="translate(281.70,133) scale(0.06400,-0.06400)" d="M101 449H26V516H101V642Q101 693 124.5 716.5Q148 740 199 740H276V673H177V516H276V449H177V0H101Z" fill="#17324a" stroke="#17324a" stroke-width="20" stroke-linejoin="round"/>
<path transform="translate(300.51,133) scale(0.06400,-0.06400)" d="M180 0Q139 0 120.5 18.5Q102 37 102 78V449H26V516H71Q94 516 101.5 527.5Q109 539 109 562V658H178V516H278V449H178V67H273V0Z" fill="#17324a" stroke="#17324a" stroke-width="20" stroke-linejoin="round"/>
<path transform="translate(320.86,133) scale(0.06400,-0.06400)" d="M27 516H101L151 292L195 67H205L256 292L308 516H396L448 292L499 67H509L553 292L603 516H675L551 0H455L392 250L357 439H347L310 250L247 0H151Z" fill="#2b8fd6" stroke="#2b8fd6" stroke-width="20" stroke-linejoin="round"/>
<path transform="translate(365.54,133) scale(0.06400,-0.06400)" d="M76 0V516H152V420H162Q175 465 206.5 490.5Q238 516 289 516H317V439H267Q213 439 182.5 415.0Q152 391 152 343V0Z" fill="#2b8fd6" stroke="#2b8fd6" stroke-width="20" stroke-linejoin="round"/>
<path transform="translate(386.78,133) scale(0.06400,-0.06400)" d="M114 641Q67 641 67 682V698Q67 739 114 739Q161 739 161 698V682Q161 641 114 641ZM76 516H152V0H76Z" fill="#2b8fd6" stroke="#2b8fd6" stroke-width="20" stroke-linejoin="round"/>
<path transform="translate(401.38,133) scale(0.06400,-0.06400)" d="M470 -58Q470 -140 414.5 -176.0Q359 -212 243 -212Q132 -212 84.5 -179.0Q37 -146 37 -84Q37 -42 58.0 -18.0Q79 6 112 12V26Q92 37 80.5 54.5Q69 72 69 96Q69 128 87.5 151.0Q106 174 148 179V190Q108 210 85.5 249.5Q63 289 63 349Q63 437 111.0 482.0Q159 527 240 527Q288 527 327 510V528Q327 557 340.0 570.0Q353 583 382 583H451V516H362V488Q388 465 402.5 431.0Q417 397 417 349Q417 261 369.0 216.0Q321 171 240 171Q216 171 191 176Q163 171 148.5 153.5Q134 136 134 118Q134 98 148.0 88.0Q162 78 194 78H307Q394 78 432.0 43.0Q470 8 470 -58ZM399 -63Q399 -29 378.0 -11.5Q357 6 306 6H149Q126 -5 116.5 -22.0Q107 -39 107 -65Q107 -104 131.0 -126.5Q155 -149 208 -149H274Q336 -149 367.5 -128.5Q399 -108 399 -63ZM240 233Q287 233 313.0 257.0Q339 281 339 331V368Q339 418 313.0 442.0Q287 466 240 466Q193 466 167.0 442.0Q141 418 141 368V331Q141 281 167.0 257.0Q193 233 240 233Z" fill="#2b8fd6" stroke="#2b8fd6" stroke-width="20" stroke-linejoin="round"/>
<path transform="translate(431.90,133) scale(0.06400,-0.06400)" d="M76 740H152V432H162Q177 480 208.5 504.0Q240 528 294 528Q363 528 402.5 481.0Q442 434 442 336V0H366V331Q366 393 340.5 426.0Q315 459 262 459Q216 459 184.0 431.0Q152 403 152 352V0H76Z" fill="#2b8fd6" stroke="#2b8fd6" stroke-width="20" stroke-linejoin="round"/>
<path transform="translate(464.74,133) scale(0.06400,-0.06400)" d="M180 0Q139 0 120.5 18.5Q102 37 102 78V449H26V516H71Q94 516 101.5 527.5Q109 539 109 562V658H178V516H278V449H178V67H273V0Z" fill="#2b8fd6" stroke="#2b8fd6" stroke-width="20" stroke-linejoin="round"/>
<path transform="translate(197.85,164) scale(0.01550,-0.01550)" d="M298 628V0H218V628H21V698H495V628Z" fill="#5b7285"/>
<path transform="translate(207.57,164) scale(0.01550,-0.01550)" d="M83 0V698H469V628H163V388H450V318H163V70H469V0Z" fill="#5b7285"/>
<path transform="translate(217.45,164) scale(0.01550,-0.01550)" d="M305 -12Q246 -12 199.0 9.5Q152 31 119.5 75.0Q87 119 69.5 187.5Q52 256 52 349Q52 442 69.5 510.5Q87 579 119.5 623.0Q152 667 199.0 688.5Q246 710 305 710Q391 710 443.0 673.5Q495 637 525 562L461 523Q442 580 406.5 609.5Q371 639 305 639Q225 639 181.5 581.5Q138 524 138 427V271Q138 174 181.5 116.5Q225 59 305 59Q373 59 410.0 90.5Q447 122 466 182L530 142Q500 67 445.5 27.5Q391 -12 305 -12Z" fill="#5b7285"/>
<path transform="translate(227.86,164) scale(0.01550,-0.01550)" d="M474 318H163V0H83V698H163V388H474V698H554V0H474Z" fill="#5b7285"/>
<path transform="translate(239.46,164) scale(0.01550,-0.01550)" d="M225 453 164 597H154L161 453V0H83V698H181L413 245L474 101H484L477 245V698H555V0H457Z" fill="#5b7285"/>
<path transform="translate(251.05,164) scale(0.01550,-0.01550)" d="M53 0V66H141V632H53V698H309V632H221V66H309V0Z" fill="#5b7285"/>
<path transform="translate(258.39,164) scale(0.01550,-0.01550)" d="M305 -12Q246 -12 199.0 9.5Q152 31 119.5 75.0Q87 119 69.5 187.5Q52 256 52 349Q52 442 69.5 510.5Q87 579 119.5 623.0Q152 667 199.0 688.5Q246 710 305 710Q391 710 443.0 673.5Q495 637 525 562L461 523Q442 580 406.5 609.5Q371 639 305 639Q225 639 181.5 581.5Q138 524 138 427V271Q138 174 181.5 116.5Q225 59 305 59Q373 59 410.0 90.5Q447 122 466 182L530 142Q500 67 445.5 27.5Q391 -12 305 -12Z" fill="#5b7285"/>
<path transform="translate(268.80,164) scale(0.01550,-0.01550)" d="M476 0 414 209H163L101 0H21L239 698H339L558 0ZM315 540 293 627H283L261 540L182 275H396Z" fill="#5b7285"/>
<path transform="translate(279.50,164) scale(0.01550,-0.01550)" d="M83 0V698H163V70H428V0Z" fill="#5b7285"/>
<path transform="translate(293.25,164) scale(0.01550,-0.01550)" d="M83 698H302Q423 698 489.0 614.5Q555 531 555 349Q555 167 489.0 83.5Q423 0 302 0H83ZM302 70Q377 70 423.0 122.0Q469 174 469 271V427Q469 524 423.0 576.0Q377 628 302 628H163V70Z" fill="#5b7285"/>
<path transform="translate(304.38,164) scale(0.01550,-0.01550)" d="M163 0H83V698H340Q513 698 513 499Q513 331 389 305L530 0H440L309 300H163ZM338 368Q427 368 427 464V532Q427 628 338 628H163V368Z" fill="#5b7285"/>
<path transform="translate(315.06,164) scale(0.01550,-0.01550)" d="M476 0 414 209H163L101 0H21L239 698H339L558 0ZM315 540 293 627H283L261 540L182 275H396Z" fill="#5b7285"/>
<path transform="translate(325.76,164) scale(0.01550,-0.01550)" d="M172 0 19 698H102L196 247L221 80H231L256 247L351 698H459L554 247L579 80H589L614 247L708 698H789L630 0H530L434 451L409 628H399L374 451L272 0Z" fill="#5b7285"/>
<path transform="translate(340.01,164) scale(0.01550,-0.01550)" d="M53 0V66H141V632H53V698H309V632H221V66H309V0Z" fill="#5b7285"/>
<path transform="translate(347.34,164) scale(0.01550,-0.01550)" d="M225 453 164 597H154L161 453V0H83V698H181L413 245L474 101H484L477 245V698H555V0H457Z" fill="#5b7285"/>
<path transform="translate(358.93,164) scale(0.01550,-0.01550)" d="M489 97H479Q468 50 425.5 19.0Q383 -12 306 -12Q249 -12 202.0 9.5Q155 31 122.0 75.0Q89 119 70.5 187.5Q52 256 52 349Q52 536 122.0 623.0Q192 710 319 710Q411 710 466.0 670.5Q521 631 552 562L486 522Q466 577 425.0 608.0Q384 639 319 639Q232 639 185.0 581.5Q138 524 138 427V271Q138 174 185.0 116.5Q232 59 319 59Q353 59 383.5 69.0Q414 79 436.5 98.5Q459 118 472.0 146.5Q485 175 485 211V287H347V357H563V0H489Z" fill="#5b7285"/>
<path transform="translate(370.37,164) scale(0.01550,-0.01550)" d="M261 -12Q186 -12 130.0 19.5Q74 51 37 107L95 155Q127 108 167.0 82.5Q207 57 261 57Q403 57 403 190Q403 244 377.0 272.0Q351 300 287 316L235 329Q143 352 99.5 396.5Q56 441 56 522Q56 615 114.0 662.5Q172 710 268 710Q341 710 390.5 683.0Q440 656 477 598L418 556Q391 598 356.5 619.5Q322 641 265 641Q201 641 167.5 613.0Q134 585 134 522Q134 471 161.5 445.0Q189 419 250 404L302 391Q351 379 385.0 362.5Q419 346 440.5 322.0Q462 298 471.5 265.5Q481 233 481 190Q481 91 422.5 39.5Q364 -12 261 -12Z" fill="#5b7285"/>
<path transform="translate(380.23,164) scale(0.01550,-0.01550)" d="M124 106Q183 106 183 55V39Q183 0 159.5 -47.5Q136 -95 97 -132H35Q62 -100 79.0 -72.5Q96 -45 104 -10Q65 -1 65 39V55Q65 106 124 106Z" fill="#5b7285"/>
<path transform="translate(390.81,164) scale(0.01550,-0.01550)" d="M489 97H479Q468 50 425.5 19.0Q383 -12 306 -12Q249 -12 202.0 9.5Q155 31 122.0 75.0Q89 119 70.5 187.5Q52 256 52 349Q52 536 122.0 623.0Q192 710 319 710Q411 710 466.0 670.5Q521 631 552 562L486 522Q466 577 425.0 608.0Q384 639 319 639Q232 639 185.0 581.5Q138 524 138 427V271Q138 174 185.0 116.5Q232 59 319 59Q353 59 383.5 69.0Q414 79 436.5 98.5Q459 118 472.0 146.5Q485 175 485 211V287H347V357H563V0H489Z" fill="#5b7285"/>
<path transform="translate(402.25,164) scale(0.01550,-0.01550)" d="M83 0V698H469V628H163V388H450V318H163V70H469V0Z" fill="#5b7285"/>
<path transform="translate(412.12,164) scale(0.01550,-0.01550)" d="M225 453 164 597H154L161 453V0H83V698H181L413 245L474 101H484L477 245V698H555V0H457Z" fill="#5b7285"/>
<path transform="translate(423.72,164) scale(0.01550,-0.01550)" d="M83 0V698H469V628H163V388H450V318H163V70H469V0Z" fill="#5b7285"/>
<path transform="translate(433.59,164) scale(0.01550,-0.01550)" d="M163 0H83V698H340Q513 698 513 499Q513 331 389 305L530 0H440L309 300H163ZM338 368Q427 368 427 464V532Q427 628 338 628H163V368Z" fill="#5b7285"/>
<path transform="translate(444.27,164) scale(0.01550,-0.01550)" d="M476 0 414 209H163L101 0H21L239 698H339L558 0ZM315 540 293 627H283L261 540L182 275H396Z" fill="#5b7285"/>
<path transform="translate(454.97,164) scale(0.01550,-0.01550)" d="M298 628V0H218V628H21V698H495V628Z" fill="#5b7285"/>
<path transform="translate(464.69,164) scale(0.01550,-0.01550)" d="M83 0V698H469V628H163V388H450V318H163V70H469V0Z" fill="#5b7285"/>
<path transform="translate(474.57,164) scale(0.01550,-0.01550)" d="M83 698H302Q423 698 489.0 614.5Q555 531 555 349Q555 167 489.0 83.5Q423 0 302 0H83ZM302 70Q377 70 423.0 122.0Q469 174 469 271V427Q469 524 423.0 576.0Q377 628 302 628H163V70Z" fill="#5b7285"/>
</svg>
